<svg width="13" height="14" viewBox="0 0 13 14" fill="none" xmlns="http://www.w3.org/2000/svg">
<path d="M6.3629 0.681921C6.96473 0.676716 6.96473 0.676716 7.57871 0.671406C10.5013 0.702447 10.5013 0.702447 11.6133 1.51158C12.7904 3.12452 12.486 5.05478 12.4802 6.98275C12.4941 7.40321 12.508 7.82367 12.5223 8.25687C12.5285 10.2744 12.5176 11.3109 11.2281 12.9185C9.42003 13.7997 8.09528 13.8807 6.08762 13.8647C5.45109 13.8698 4.81457 13.8748 4.15875 13.88C2.44782 13.62 2.44782 13.62 1.25494 12.9013C0.111982 11.0497 0.223355 9.39113 0.276172 7.25803C0.270967 6.66567 0.270967 6.66567 0.265657 6.06133C0.283034 4.44133 0.383869 3.13316 0.962458 1.6129C2.62231 0.418187 4.37519 0.633478 6.3629 0.681921Z" fill="#253A68"/>
<path d="M3.42719 3.83203C5.52665 3.83203 7.62611 3.83203 9.78919 3.83203C9.78919 6.09299 9.78919 8.35395 9.78919 10.6834C5.249 10.7312 5.249 10.7312 3.91657 10.6834C3.42719 10.194 3.42719 10.194 3.37939 8.75456C3.39533 7.11371 3.41126 5.47287 3.42719 3.83203Z" fill="#236AB5"/>
<path d="M5.38466 1.38513C6.34289 1.35876 7.30133 1.33975 8.2598 1.32396C9.06034 1.30693 9.06034 1.30693 9.87706 1.28955C11.2573 1.38513 11.2573 1.38513 12.236 2.3639C12.3472 3.32858 12.3472 3.32858 12.3316 4.49349C12.3285 4.90985 12.3253 5.32621 12.3221 5.75519C12.3139 6.19047 12.3057 6.62576 12.2972 7.07423C12.2928 7.5133 12.2884 7.95237 12.2838 8.40475C12.2723 9.4907 12.2562 10.5764 12.236 11.6622C11.9131 11.6622 11.5901 11.6622 11.2573 11.6622C11.0958 10.5317 10.9343 9.40126 10.7679 8.23652C10.4449 8.23652 10.1219 8.23652 9.78912 8.23652C9.78912 6.78305 9.78912 5.32958 9.78912 3.83206C7.85116 3.67056 5.91319 3.50906 3.9165 3.34267C4.2395 3.18118 4.56249 3.01968 4.89527 2.85329C5.05677 2.3688 5.21827 1.88431 5.38466 1.38513Z" fill="#1E2F5A"/>
<path d="M3.42725 3.83203C5.36521 3.83203 7.30318 3.83203 9.29987 3.83203C9.29987 4.31652 9.29987 4.80101 9.29987 5.30019C8.50584 5.71038 7.7103 6.11766 6.91411 6.52365C6.24983 6.86431 6.24983 6.86431 5.57213 7.21185C4.40602 7.74711 4.40602 7.74711 3.42725 7.74711C3.42725 6.45513 3.42725 5.16316 3.42725 3.83203Z" fill="#A0CFF2"/>
<path d="M11.2572 5.78955C11.4187 5.78955 11.5802 5.78955 11.7466 5.78955C11.7466 7.72752 11.7466 9.66548 11.7466 11.6622C11.5851 11.6622 11.4236 11.6622 11.2572 11.6622C11.0957 10.5317 10.9342 9.40121 10.7678 8.23648C10.4448 8.23648 10.1218 8.23648 9.78906 8.23648C10.7067 6.34011 10.7067 6.34011 11.2572 5.78955Z" fill="#102654"/>
</svg>
