<svg width="58" height="99" viewBox="0 0 58 99" fill="none" xmlns="http://www.w3.org/2000/svg">
<path d="M48.939 1.76458C49.3148 2.86509 49.3148 2.86509 49.5832 4.24782C49.6845 4.76796 49.7857 5.28809 49.8901 5.82399C49.9901 6.37188 50.09 6.91977 50.1931 7.48426C50.2949 7.99241 50.3968 8.50056 50.5018 9.0241C52.4953 19.5917 52.7254 30.5393 53.4658 41.2472C54.2214 52.1434 54.9743 62.9003 56.9689 73.6468C57.1303 74.5533 57.1303 74.5533 57.2949 75.4782C57.4432 76.2749 57.4432 76.2749 57.5944 77.0878C57.9114 80.2061 57.1364 82.1139 55.236 84.4917C51.3104 88.6062 45.4677 90.6969 39.8548 90.8938C39.4612 90.8736 39.0675 90.8534 38.6619 90.8326C38.6733 91.1929 38.6846 91.5531 38.6963 91.9242C38.7052 92.4017 38.714 92.8793 38.7231 93.3713C38.7345 93.8426 38.7458 94.3138 38.7575 94.7993C38.6577 96.2786 38.3041 97.3257 37.6832 98.6628C36.5209 98.7546 36.5209 98.7546 35.2362 98.6628C34.256 97.1925 34.0163 96.3578 33.7069 94.656C33.6249 94.215 33.5429 93.774 33.4584 93.3197C33.3991 92.9835 33.3398 92.6472 33.2787 92.3008C32.7351 92.2272 32.7351 92.2272 32.1806 92.1522C30.5167 91.923 28.8544 91.6838 27.192 91.4444C26.622 91.3674 26.052 91.2904 25.4648 91.2112C21.228 90.5905 17.3276 89.6959 14.0398 86.7952C13.7388 86.5404 13.4379 86.2855 13.1279 86.0229C10.6944 83.1256 9.88679 79.8478 9.29883 76.1855C9.21999 75.7261 9.14115 75.2666 9.05991 74.7933C8.80702 73.3097 8.56324 71.8248 8.32006 70.3396C8.14694 69.3074 7.97341 68.2753 7.7995 67.2432C7.38333 64.7629 6.97498 62.2813 6.56991 59.7992C6.39332 58.7212 6.21432 57.6438 6.033 56.5666C4.68758 48.5554 3.73607 40.5 2.81412 32.4309C2.31205 28.0573 1.75194 23.7182 0.979289 19.3824C0.771803 18.1093 0.582141 16.836 0.398145 15.5591C0.310457 14.9705 0.222769 14.382 0.132424 13.7755C-0.00848671 11.9233 0.0435323 10.4211 0.489904 8.61596C2.15527 6.8855 4.29874 6.63665 6.56707 6.21683C6.97705 6.13721 7.38704 6.05758 7.80944 5.97554C9.15102 5.71767 10.494 5.46866 11.8375 5.22086C12.295 5.13482 12.7526 5.04878 13.224 4.96014C44.8372 -0.969945 44.8372 -0.969945 48.939 1.76458Z" fill="#3F9BDF"/>
<path d="M48.939 1.76458C49.3148 2.86509 49.3148 2.86509 49.5832 4.24782C49.6845 4.76796 49.7857 5.28809 49.8901 5.82399C49.9901 6.37188 50.09 6.91977 50.1931 7.48426C50.2949 7.99241 50.3968 8.50056 50.5018 9.0241C52.4953 19.5917 52.7254 30.5393 53.4658 41.2472C54.2214 52.1434 54.9743 62.9003 56.9689 73.6468C57.1303 74.5533 57.1303 74.5533 57.2949 75.4782C57.4432 76.2749 57.4432 76.2749 57.5944 77.0878C57.9114 80.2061 57.1364 82.1139 55.236 84.4917C51.3104 88.6062 45.4677 90.6969 39.8548 90.8938C39.4612 90.8736 39.0675 90.8534 38.6619 90.8326C38.6733 91.1929 38.6846 91.5531 38.6963 91.9242C38.7052 92.4017 38.714 92.8793 38.7231 93.3713C38.7345 93.8426 38.7458 94.3138 38.7575 94.7993C38.6577 96.2786 38.3041 97.3257 37.6832 98.6628C36.5209 98.7546 36.5209 98.7546 35.2362 98.6628C34.256 97.1925 34.0163 96.3578 33.7069 94.656C33.6249 94.215 33.5429 93.774 33.4584 93.3197C33.3991 92.9835 33.3398 92.6472 33.2787 92.3008C32.7351 92.2272 32.7351 92.2272 32.1806 92.1522C30.5167 91.923 28.8544 91.6838 27.192 91.4444C26.622 91.3674 26.052 91.2904 25.4648 91.2112C21.228 90.5905 17.3276 89.6959 14.0398 86.7952C13.7388 86.5404 13.4379 86.2855 13.1279 86.0229C10.6944 83.1256 9.88679 79.8478 9.29883 76.1855C9.21999 75.7261 9.14115 75.2666 9.05991 74.7933C8.80702 73.3097 8.56324 71.8248 8.32006 70.3396C8.14694 69.3074 7.97341 68.2753 7.7995 67.2432C7.38333 64.7629 6.97498 62.2813 6.56991 59.7992C6.39332 58.7212 6.21432 57.6438 6.033 56.5666C4.68758 48.5554 3.73607 40.5 2.81412 32.4309C2.31205 28.0573 1.75194 23.7182 0.979289 19.3824C0.771803 18.1093 0.582141 16.836 0.398145 15.5591C0.310457 14.9705 0.222769 14.382 0.132424 13.7755C-0.00848671 11.9233 0.0435323 10.4211 0.489904 8.61596C2.15527 6.8855 4.29874 6.63665 6.56707 6.21683C6.97705 6.13721 7.38704 6.05758 7.80944 5.97554C9.15102 5.71767 10.494 5.46866 11.8375 5.22086C12.295 5.13482 12.7526 5.04878 13.224 4.96014C44.8372 -0.969945 44.8372 -0.969945 48.939 1.76458ZM28.6907 6.04669C28.1385 6.13466 27.5863 6.22262 27.0174 6.31325C22.2916 7.07754 17.5874 7.94188 12.8928 8.87738C11.7669 9.10116 10.6401 9.31991 9.51294 9.53738C6.383 10.031 6.383 10.031 3.42621 11.0629C3.2392 15.5464 3.82505 19.8583 4.49674 24.2763C4.60759 25.0251 4.71802 25.774 4.82806 26.523C5.05755 28.0826 5.28883 29.642 5.52139 31.2013C6.03939 34.6839 6.53571 38.1697 7.03216 41.6554C7.1834 42.7158 7.33552 43.776 7.48789 44.8362C7.94845 48.047 8.39689 51.2589 8.82092 54.4748C9.75158 71.0632 9.75158 71.0632 16.6396 84.96C17.2856 84.96 17.9316 84.96 18.5971 84.96C18.2684 83.0973 17.7518 81.362 17.129 79.5768C17.5151 79.5333 17.9012 79.4897 18.2989 79.4449C26.5486 77.7753 34.7316 73.5188 39.9179 66.8451C44.771 59.254 43.2573 48.5464 43.0664 39.9366C43.0536 39.3561 43.0408 38.7757 43.0277 38.1776C42.7492 27.1045 41.9617 16.1191 40.1301 5.19027C36.2252 5.0684 32.5411 5.41365 28.6907 6.04669Z" fill="#183262"/>
<path d="M37.1932 4.70074C40.2616 4.70074 43.3301 4.70074 46.4915 4.70074C48.0915 10.3007 48.9884 15.7513 49.4297 21.5463C49.4711 22.077 49.5125 22.6077 49.5552 23.1544C49.9667 28.58 50.2541 34.011 50.5343 39.4446C51.2494 53.1351 52.6021 66.5305 54.8111 80.066C54.3859 80.0558 53.9608 80.0455 53.5227 80.035C42.1755 79.7988 30.5816 79.576 20.0647 84.4705C19.5802 84.632 19.0957 84.7935 18.5966 84.9599C17.1284 81.7789 17.1284 81.7789 17.1284 79.5767C17.999 79.2738 17.999 79.2738 18.8871 78.9649C31.8156 74.6115 31.8156 74.6115 40.6208 64.7116C43.5879 56.8925 42.7587 48.1572 42.5764 39.9365C42.5637 39.356 42.5509 38.7755 42.5377 38.1775C42.2931 28.4506 41.7646 18.6799 40.3092 9.05168C40.1432 7.74502 40.0954 6.50524 40.1295 5.19013C39.1605 5.19013 38.1915 5.19013 37.1932 5.19013C37.1932 5.02863 37.1932 4.86714 37.1932 4.70074Z" fill="#1555A4"/>
<path d="M6.85179 10.5732C8.15418 18.2832 9.10584 26.0256 10.0328 33.7884C11.2546 44.0388 11.2546 44.0388 12.7113 54.2576C13.1721 57.2378 13.5657 60.2211 13.9394 63.2136C15.1226 73.6632 15.1226 73.6632 18.597 83.4916C18.4441 84.6539 18.4441 84.6539 18.1076 85.4491C16.1993 85.0129 15.3786 84.2554 14.3455 82.6657C12.4236 79.5419 12.0226 76.0144 11.5621 72.4498C11.0685 68.7978 10.4777 65.1809 9.7881 61.561C8.92884 56.9822 8.30769 52.4008 7.75601 47.776C7.24293 43.4763 6.6806 39.183 6.11771 34.8895C6.06479 34.484 6.01187 34.0784 5.95734 33.6605C5.32565 28.8269 4.64138 24.0118 3.82695 19.2051C3.38417 16.4783 3.25889 13.8184 3.4261 11.0626C4.63135 10.46 5.52042 10.5382 6.85179 10.5732Z" fill="#90C1E7"/>
<path d="M52.3642 82.0233C50.5015 84.1188 48.6011 85.3545 46.0022 86.4277C45.4767 86.6473 44.9512 86.8668 44.4098 87.093C37.535 89.6883 30.5151 89.6552 23.4905 87.4065C23.1675 87.0835 22.8445 86.7605 22.5117 86.4277C24.7766 85.6921 27.0462 84.9769 29.3258 84.2883C30.1682 84.0334 31.0085 83.7718 31.8483 83.5086C38.4226 81.7034 45.5896 81.975 52.3642 82.0233Z" fill="#124C9A"/>
<path d="M17.1283 80.5553C18.6341 83.2055 18.6341 83.2055 18.4436 84.6539C18.3325 84.9163 18.2215 85.1787 18.1071 85.4491C16.7616 85.1128 15.8881 84.7857 15.0618 83.6426C14.5819 82.7912 14.1397 81.9188 13.7026 81.0447C14.9079 80.442 15.797 80.5202 17.1283 80.5553Z" fill="#81B4E0"/>
<path d="M4.40446 7.63676C4.16853 7.83169 3.93259 8.02662 3.6895 8.22746C3.22583 8.61638 3.22583 8.61638 2.75279 9.01316C2.4462 9.26865 2.13961 9.52414 1.82372 9.78738C0.870075 10.6133 0.870075 10.6133 0 12.0412C0.237572 8.89339 0.237572 8.89339 1.3764 7.63676C2.6589 7.05047 3.09518 7.24151 4.40446 7.63676Z" fill="#314A76"/>
</svg>
