<svg width="12" height="53" viewBox="0 0 12 53" fill="none" xmlns="http://www.w3.org/2000/svg">
<path d="M6.86316 0.93175C7.2218 0.930173 7.58044 0.928596 7.94994 0.926971C10.6169 0.95391 10.6169 0.95391 11.7264 2.06345C12.0095 5.2875 11.7593 8.5978 11.5568 11.8242C11.2009 17.4987 11.0931 23.1735 10.9923 28.8573C10.8887 34.6624 10.7678 40.4666 10.5488 46.2687C10.5347 46.73 10.5205 47.1914 10.5059 47.6667C10.4882 48.0906 10.4705 48.5145 10.4523 48.9512C10.4385 49.3247 10.4247 49.6982 10.4104 50.0831C10.2583 51.0019 10.2583 51.0019 9.2795 51.9807C8.03384 52.0779 6.85354 52.117 5.60911 52.1031C5.27161 52.1068 4.9341 52.1106 4.58637 52.1145C2.0627 52.1047 2.0627 52.1047 0.959955 51.0019C0.83896 49.5699 0.83896 49.5699 0.841073 47.7079C0.840144 47.3686 0.839215 47.0294 0.838258 46.6798C0.836436 45.5499 0.841704 44.4202 0.847167 43.2903C0.847751 42.4969 0.847971 41.7036 0.847846 40.9102C0.848614 39.2373 0.852677 37.5645 0.859234 35.8917C0.867405 33.7837 0.869368 31.6757 0.869129 29.5676C0.869258 22.1545 0.884747 14.7382 1.11862 7.32817C1.12926 6.85337 1.1399 6.37857 1.15086 5.88939C1.16778 5.46278 1.1847 5.03617 1.20214 4.59664C1.21437 4.23336 1.2266 3.87007 1.2392 3.49578C1.88932 0.578565 4.3805 0.876873 6.86316 0.93175Z" fill="#1F3361"/>
<path d="M4.38657 4.02063C5.84004 4.02063 7.29352 4.02063 8.79103 4.02063C8.80456 5.71311 8.8141 7.40548 8.82162 9.098C8.82572 9.56104 8.82982 10.0241 8.83405 10.5012C8.84366 13.4221 8.74295 16.3226 8.56164 19.2374C8.19253 25.2726 8.1282 31.3156 8.02637 37.36C8.00517 38.5459 7.98383 39.7317 7.96233 40.9176C7.91058 43.7895 7.86068 46.6615 7.81226 49.5334C6.52029 49.5334 5.22831 49.5334 3.89719 49.5334C3.83704 34.3538 3.91257 19.1936 4.38657 4.02063Z" fill="#CBE6F4"/>
<path d="M4.87552 19.1915C5.19852 19.353 5.52151 19.5145 5.85429 19.6809C6.91835 25.6767 6.39906 32.1516 6.37427 38.2164C6.37181 39.2697 6.36957 40.323 6.36758 41.3763C6.36224 43.9322 6.35409 46.4881 6.34368 49.044C6.82817 49.2055 7.31266 49.367 7.81183 49.5334C6.51986 49.5334 5.22788 49.5334 3.89675 49.5334C3.88429 45.9899 3.87575 42.4463 3.86987 38.9028C3.86742 37.6986 3.86408 36.4944 3.85984 35.2902C3.85387 33.5542 3.85111 31.8183 3.84896 30.0823C3.84644 29.5483 3.84391 29.0144 3.84131 28.4643C3.84109 25.496 3.95538 22.6203 4.38614 19.6809C4.54764 19.5194 4.70913 19.3579 4.87552 19.1915Z" fill="#83C4F4"/>
<path d="M6.83313 28.0005C6.99463 28.0005 7.15613 28.0005 7.32252 28.0005C7.48402 34.9449 7.64551 41.8892 7.8119 49.044C7.32741 49.044 6.84292 49.044 6.34375 49.044C6.50525 42.0997 6.66674 35.1553 6.83313 28.0005Z" fill="#DFF3FB"/>
<path d="M4.87472 19.1915C5.19772 19.353 5.52071 19.5145 5.85349 19.6809C5.89303 20.7206 5.92156 21.7606 5.94525 22.8007C5.96229 23.3799 5.97932 23.959 5.99687 24.5556C5.94956 25.0464 5.90224 25.5372 5.85349 26.0429C5.12676 26.5274 5.12676 26.5274 4.38534 27.0217C4.3722 25.8084 4.36245 24.5952 4.35475 23.3819C4.3486 22.8629 4.3486 22.8629 4.34233 22.3333C4.3381 21.4491 4.35979 20.5648 4.38534 19.6809C4.54684 19.5194 4.70833 19.3579 4.87472 19.1915Z" fill="#8ECBF4"/>
</svg>
