<svg width="33" height="65" viewBox="0 0 33 65" fill="none" xmlns="http://www.w3.org/2000/svg">
<path d="M3.77036 0C4.25892 0.000924096 4.74748 0.00184819 5.25084 0.00280029C6.07902 0.00333626 6.07902 0.00333626 6.92394 0.00388306C9.45372 0.0207869 11.9834 0.0410299 14.5131 0.0709032C15.8494 0.0858646 17.1854 0.0925713 18.5218 0.0919314C20.443 0.0910431 22.3636 0.11384 24.2846 0.138409C24.8832 0.135493 25.4817 0.132578 26.0984 0.129575C30.1776 0.21131 30.1776 0.21131 31.9175 1.74707C32.6876 3.97624 32.7818 5.88193 32.7437 8.22473C32.7433 8.68111 32.7428 9.13749 32.7424 9.60771C32.7394 10.5731 32.7317 11.5385 32.7196 12.5039C32.7019 13.9569 32.6995 15.4094 32.6998 16.8626C32.6749 23.6879 32.3281 30.3292 30.3771 36.9168C30.2812 37.2629 30.1853 37.6089 30.0865 37.9654C29.6647 39.4406 29.2427 40.852 28.5834 42.2408C26.621 46.4077 26.8863 50.653 26.9317 55.1529C26.9388 56.1948 26.9314 57.2359 26.9227 58.2777C26.9299 59.1997 26.9299 59.1997 26.9372 60.1404C26.6455 61.7225 26.6455 61.7225 25.5271 62.886C22.839 64.4927 20.1634 64.2912 17.1025 64.3224C16.6376 64.3366 16.1727 64.3508 15.6936 64.3654C12.393 64.3956 12.393 64.3956 10.731 63.5195C9.56201 61.4098 9.32306 59.1589 8.93592 56.7981C7.95152 51.4288 6.22721 46.8977 3.63166 42.1133C-0.748282 33.4292 -0.0704055 22.2204 0.218754 12.784C0.229636 12.3021 0.240518 11.8201 0.25173 11.3235C0.281855 10.0358 0.323241 8.74916 0.371686 7.46198C0.382529 7.09585 0.393372 6.72972 0.404543 6.3525C0.524242 4.03867 0.921859 0.154794 3.77036 0Z" fill="#182E5C"/>
<path d="M23.8923 8.62405C24.3162 8.8663 24.7402 9.10854 25.1769 9.35813C25.1769 11.4576 25.1769 13.5571 25.1769 15.7201C23.2194 14.7414 23.2194 14.7414 22.2406 13.7014C21.2474 12.5607 21.2474 12.5607 19.3043 12.7838C19.7959 14.8118 20.7013 15.6082 22.3018 16.8212C24.1245 18.3116 24.1245 18.3116 24.4543 19.8551C24.444 20.949 24.3743 21.9819 24.1982 23.0609C22.2045 22.2729 20.8874 20.84 19.4267 19.3293C19.1787 19.077 18.9308 18.8247 18.6754 18.5647C18.0671 17.945 17.462 17.3222 16.8574 16.6989C16.3729 16.8604 15.8884 17.0219 15.3892 17.1883C15.6074 19.3244 17.0199 20.5046 18.4785 21.9292C18.8357 22.2949 18.8357 22.2949 19.2001 22.6681C20.5069 23.9643 21.421 24.6717 23.2194 25.0184C23.0131 27.2117 22.7869 29.3297 22.254 31.4684C19.9289 41.2057 20.5971 51.2942 20.7725 61.2329C18.1885 61.2329 15.6046 61.2329 12.9423 61.2329C12.0723 58.8404 11.3994 56.5125 10.8943 54.0151C10.1308 50.327 8.98289 47.1624 7.2838 43.7986C5.29372 39.8365 4.18643 36.3056 3.644 31.8698C3.58155 31.3633 3.51909 30.8567 3.45475 30.3348C3.30912 28.8879 3.22341 27.4496 3.15461 25.9972C3.11172 25.4673 3.06882 24.9374 3.02462 24.3914C2.81597 20.3322 3.64236 17.9591 6.09092 14.7414C6.45429 14.2266 6.81766 13.7118 7.19204 13.1814C11.6223 8.65053 17.615 5.88581 23.8923 8.62405Z" fill="#C0DEF6"/>
<path d="M5.53978 2.87903C6.09727 2.88229 6.09727 2.88229 6.66603 2.88561C7.08726 2.88569 7.5085 2.88576 7.9425 2.88584C8.39775 2.89089 8.853 2.89594 9.32204 2.90115C9.78774 2.90253 10.2534 2.90392 10.7333 2.90534C12.2243 2.91083 13.7152 2.92312 15.2061 2.93556C16.2155 2.94046 17.2248 2.94493 18.2342 2.94894C20.7118 2.95974 23.1892 2.97665 25.6667 2.99673C25.679 3.50713 25.6913 4.01752 25.7039 4.54338C25.7312 5.21627 25.7589 5.88913 25.7872 6.56198C25.7972 7.06601 25.7972 7.06601 25.8074 7.58023C25.8868 9.23082 25.9668 10.1323 27.1065 11.3675C27.4489 11.5828 27.7914 11.798 28.1442 12.0198C29.6794 13.1018 30.0253 13.5068 30.3637 15.3958C30.378 17.484 30.2623 19.5159 30.0712 21.5934C30.0442 21.9544 30.0173 22.3155 29.9895 22.6875C29.5344 28.7338 28.4907 34.6271 26.3721 40.3238C24.0379 46.7445 23.7527 52.8151 23.7631 59.6232C23.7092 60.7442 23.7092 60.7442 23.2198 61.2335C22.4044 61.2534 21.5883 61.2544 20.7729 61.2335C20.2686 57.133 20.1074 53.0363 20.0694 48.9072C20.0641 48.3886 20.0641 48.3886 20.0588 47.8596C20.0175 40.0209 21.4158 32.6244 23.2198 25.0191C22.8478 24.9644 22.4759 24.9097 22.0926 24.8533C20.0803 24.3598 19.0706 23.1317 17.6531 21.6851C17.3799 21.4236 17.1067 21.1621 16.8253 20.8927C16.0511 20.1156 16.0511 20.1156 14.9003 18.657C15.073 17.5871 15.073 17.5871 15.3897 16.6995C17.3472 16.6995 17.3472 16.6995 18.7886 17.9669C19.3123 18.5082 19.8309 19.0545 20.3447 19.6052C22.0858 21.5715 22.0858 21.5715 24.1986 23.0615C24.2892 21.4957 24.1944 20.1545 23.7092 18.657C22.6538 17.4963 21.5499 16.5789 20.2988 15.6347C19.2284 14.6735 18.9888 14.1872 18.8153 12.7844C19.9069 12.4346 19.9069 12.4346 21.2623 12.295C22.3577 12.9966 22.3577 12.9966 23.3727 13.9773C23.9683 14.5526 24.5638 15.128 25.1774 15.7207C25.1774 13.6213 25.1774 11.5218 25.1774 9.35873C23.9661 9.11649 23.9661 9.11649 22.7304 8.86935C22.4074 8.70785 22.0844 8.54636 21.7517 8.37996C17.3472 7.97052 14.0928 8.17361 10.4958 10.8269C10.0719 11.0994 9.64794 11.3719 9.21117 11.6527C7.71038 13.114 6.598 14.7518 5.4299 16.4854C4.70176 17.5621 3.94387 18.6032 3.15503 19.6358C3.03914 7.44156 3.03914 7.44156 3.64441 3.9755C4.62318 2.99673 4.62318 2.99673 5.53978 2.87903Z" fill="#64A6CC"/>
<path d="M5.53978 2.87903C6.09727 2.88229 6.09727 2.88229 6.66603 2.88561C7.08726 2.88569 7.5085 2.88576 7.9425 2.88584C8.39775 2.89089 8.853 2.89594 9.32204 2.90115C9.78774 2.90253 10.2534 2.90392 10.7333 2.90534C12.2243 2.91083 13.7152 2.92312 15.2061 2.93556C16.2155 2.94046 17.2248 2.94493 18.2342 2.94894C20.7118 2.95974 23.1892 2.97665 25.6667 2.99673C25.6667 5.25769 25.6667 7.51865 25.6667 9.84812C25.1621 9.60587 24.6574 9.36363 24.1374 9.11404C20.8281 7.89143 16.9051 7.65614 13.5659 8.8617C12.4761 9.45219 11.4925 10.0917 10.4958 10.8269C10.0719 11.0994 9.64794 11.3719 9.21117 11.6527C7.71038 13.114 6.598 14.7518 5.4299 16.4854C4.70176 17.5621 3.94387 18.6031 3.15503 19.6358C3.03914 7.44156 3.03914 7.44156 3.64441 3.9755C4.62318 2.99673 4.62318 2.99673 5.53978 2.87903Z" fill="#3E5DBE"/>
<path d="M5.11299 16.21C5.43598 16.21 5.75897 16.21 6.09176 16.21C6.0912 16.5687 6.09065 16.9274 6.09008 17.297C6.12255 26.3465 6.45655 35.4558 11.0162 43.5238C12.9413 46.9395 13.4178 50.7901 14.0941 54.6063C14.1861 55.1233 14.2782 55.6404 14.3731 56.1732C14.4518 56.6407 14.5305 57.1082 14.6115 57.5899C14.856 58.9016 14.856 58.9016 15.8795 60.2546C17.0663 60.5394 17.0663 60.5394 18.3876 60.5911C18.8329 60.6232 19.2783 60.6554 19.7372 60.6886C20.0791 60.7069 20.421 60.7251 20.7733 60.744C20.7733 60.9055 20.7733 61.067 20.7733 61.2334C18.1894 61.2334 15.6054 61.2334 12.9431 61.2334C12.0731 58.8409 11.4003 56.513 10.8952 54.0155C10.1316 50.3274 8.98372 47.1629 7.28463 43.799C5.29455 39.8369 4.18726 36.306 3.64483 31.8703C3.58238 31.3637 3.51992 30.8571 3.45558 30.3352C3.30991 28.888 3.22019 27.4507 3.15545 25.9977C3.1239 25.4507 3.09236 24.9038 3.05986 24.3403C2.94558 20.9995 3.09651 18.9196 5.11299 16.21Z" fill="#E2EDF3"/>
<path d="M25.6675 2.99662C26.8092 2.97586 27.9514 2.97659 29.0932 2.99662C29.5825 3.48601 29.5825 3.48601 29.6381 4.44004C29.6355 4.84753 29.633 5.25502 29.6303 5.67486C29.6288 6.11487 29.6272 6.55489 29.6256 7.00824C29.6215 7.47097 29.6174 7.93369 29.6131 8.41044C29.6109 8.87506 29.6087 9.33968 29.6064 9.81838C29.6007 10.9702 29.5926 12.1219 29.5825 13.2737C28.1457 12.4148 26.8492 11.5287 25.6675 10.3374C25.3571 8.80124 25.273 7.96988 25.4228 6.48349C25.4404 6.14662 25.4581 5.80974 25.4763 5.46266C25.522 4.63945 25.5923 3.81766 25.6675 2.99662Z" fill="#1A409A"/>
<path d="M15.8796 16.21C17.3146 16.8565 18.32 17.554 19.42 18.676C19.8411 19.1018 19.8411 19.1018 20.2707 19.5362C20.5577 19.8315 20.8447 20.1267 21.1405 20.4309C21.4351 20.7299 21.7297 21.029 22.0332 21.337C22.7574 22.0727 23.4786 22.8114 24.1991 23.5507C24.0376 24.0352 23.8761 24.5197 23.7097 25.0189C22.6966 25.2101 22.6966 25.2101 21.2628 25.0189C20.0024 24.1358 18.9661 23.0635 17.8983 21.9602C17.6018 21.6732 17.3053 21.3862 16.9998 21.0904C16.7222 20.8097 16.4447 20.529 16.1587 20.2397C15.7784 19.8553 15.7784 19.8553 15.3904 19.4631C14.9008 18.6569 14.9008 18.6569 15.0363 17.6098C15.3902 16.6993 15.3902 16.6993 15.8796 16.21Z" fill="#3755B6"/>
<path d="M13.4313 22.572C15.7749 22.7839 16.6817 23.6734 18.2028 25.4166C18.5838 25.8437 18.9648 26.2707 19.3574 26.7108C20.2055 27.8515 20.5784 28.528 20.7721 29.9128C19.8866 30.2305 19.8866 30.2305 18.8145 30.4022C17.6696 29.5065 16.7259 28.655 15.7253 27.6188C15.4499 27.3529 15.1745 27.087 14.8908 26.813C14.1099 26.0226 14.1099 26.0226 12.9419 24.5296C13.1136 23.4575 13.1136 23.4575 13.4313 22.572Z" fill="#3D5CBC"/>
<path d="M19.3038 12.2949C21.3463 12.4863 22.3786 13.1457 23.8612 14.5277C24.2025 14.8413 24.5438 15.1548 24.8954 15.4778C25.1497 15.7195 25.4039 15.9611 25.6658 16.21C25.5043 17.0175 25.3428 17.825 25.1765 18.6569C23.441 18.3644 22.4842 17.6982 21.1696 16.5465C20.8296 16.2556 20.4896 15.9648 20.1392 15.6652C19.2485 14.6806 18.9569 14.0943 18.8145 12.7843C18.976 12.6228 19.1374 12.4613 19.3038 12.2949Z" fill="#2E4EB7"/>
<path d="M8.53738 11.8055C9.02188 11.8055 9.50637 11.8055 10.0055 11.8055C9.84681 14.4245 8.29414 15.859 6.57984 17.6782C6.25685 17.1937 5.93386 16.7092 5.60107 16.21C6.34959 14.5258 7.29126 13.1649 8.53738 11.8055Z" fill="#CAE1F2"/>
<path d="M19.3038 12.2949C20.1113 12.4564 20.9188 12.6179 21.7508 12.7843C22.1709 14.465 22.2284 15.5331 21.7508 17.1888C21.2453 16.654 20.747 16.1123 20.252 15.5677C19.9738 15.2668 19.6956 14.9659 19.409 14.6558C19.1147 14.2139 19.1147 14.2139 18.8145 13.7631C18.976 13.2786 19.1374 12.7941 19.3038 12.2949Z" fill="#405EC4"/>
</svg>
