<svg width="53" height="28" viewBox="0 0 53 28" fill="none" xmlns="http://www.w3.org/2000/svg">
<path d="M45.1223 0C46.6751 0.0641601 46.6751 0.0641601 47.7877 1.06969C50.2305 5.23681 51.4905 10.4605 52.0583 15.2351C52.1164 15.6332 52.1744 16.0312 52.2342 16.4414C52.3666 17.9715 52.3624 19.1123 51.5842 20.4616C44.9529 27.2693 30.5042 27.4313 21.7413 27.5863C20.5554 27.5995 19.3696 27.6084 18.1836 27.6142C17.3756 27.6198 16.5675 27.6299 15.7596 27.6443C10.3983 27.7391 6.29304 27.654 1.89637 24.2581C0.375718 22.7755 0.0955859 21.6298 0 19.5784C0.0345675 16.9297 0.95413 14.827 2.63044 12.7882C4.99349 10.8166 6.84322 10.5386 9.7877 10.3718C16.8348 9.75528 21.6189 7.18413 26.213 1.72886C27.9519 0.243685 28.8704 0.23553 31.1333 0.207535C31.4693 0.200134 31.8053 0.192734 32.1515 0.18511C33.2205 0.164192 34.2889 0.159817 35.3581 0.15592C36.0724 0.144582 36.7867 0.132167 37.501 0.118642C40.0419 0.0749157 42.5826 0.0870013 45.1223 0Z" fill="#1A3362"/>
<path d="M35.9408 2.72549C36.5512 2.74536 37.1615 2.76524 37.7904 2.78571C39.2863 2.8373 40.7783 2.90942 42.2723 3.00077C42.8031 4.9375 42.8871 6.8136 42.9146 8.81222C42.9359 9.32226 42.9359 9.32226 42.9576 9.8426C42.9887 12.3881 42.4568 13.804 40.8041 15.7248C30.8196 22.7782 14.7467 22.3557 3.12146 21.5974C2.63207 21.108 2.63207 21.108 2.41797 19.6093C2.70176 17.0552 3.8326 15.611 5.56838 13.7672C6.81499 13.1439 7.92158 13.2166 9.29337 13.1857C15.252 13.0231 20.1603 11.4687 24.6544 7.40524C24.9526 7.03923 25.2509 6.67322 25.5581 6.29612C28.6756 2.57622 31.262 2.43447 35.9408 2.72549Z" fill="#3E9CE0"/>
<path d="M42.2708 3.00049C43.4013 3.00049 44.5317 3.00049 45.6965 3.00049C46.0853 4.07051 46.4724 5.14117 46.8588 6.21208C47.0745 6.80823 47.2903 7.40438 47.5126 8.0186C48.4744 10.8138 49.2715 13.3648 49.3363 16.3362C49.3656 17.0819 49.3656 17.0819 49.3955 17.8426C49.1222 19.1502 49.1222 19.1502 48.0478 19.999C38.7243 24.2062 28.6282 24.6355 18.5627 24.6779C17.6226 24.6836 16.6826 24.6936 15.7426 24.708C14.3712 24.7288 13.0003 24.7368 11.6288 24.7418C11.0025 24.7547 11.0025 24.7547 10.3635 24.7678C7.64629 24.7579 6.18769 24.3464 4.09876 22.5759C3.93726 22.2529 3.77577 21.9299 3.60938 21.5971C4.09913 21.5826 4.09913 21.5826 4.59878 21.5677C23.492 21.7083 23.492 21.7083 40.8026 15.2351C42.7639 13.025 42.4394 10.5303 42.3625 7.74141C42.3559 7.28562 42.3493 6.82983 42.3425 6.36023C42.3252 5.24002 42.3011 4.1204 42.2708 3.00049Z" fill="#1557AA"/>
<path d="M49.6124 20.1292C49.6124 20.6137 49.6124 21.0982 49.6124 21.5974C42.7066 28.2816 26.9671 27.5666 18.1577 27.5876C16.9412 27.5924 15.725 27.6076 14.5086 27.6229C13.7229 27.6261 12.9372 27.6287 12.1515 27.6306C11.7941 27.6366 11.4366 27.6427 11.0684 27.6489C8.45539 27.6377 6.50389 27.0264 4.09961 26.0018C4.4226 25.1943 4.7456 24.3869 5.07838 23.5549C5.36076 23.6342 5.64314 23.7135 5.93407 23.7952C6.99925 24.036 7.91606 24.1093 9.00517 24.1154C9.3881 24.1185 9.77103 24.1216 10.1656 24.1248C10.5774 24.1254 10.9893 24.1259 11.4136 24.1265C11.8462 24.1281 12.2787 24.1298 12.7244 24.1314C13.6434 24.1339 14.5624 24.1351 15.4814 24.135C16.856 24.136 18.2305 24.1449 19.6051 24.1542C26.9764 24.1781 34.3208 23.91 41.4458 21.8421C41.829 21.738 42.2123 21.6339 42.6071 21.5266C44.1543 21.0989 45.6163 20.6532 47.0948 20.0222C48.1443 19.6398 48.1443 19.6398 49.6124 20.1292Z" fill="#233964"/>
<path d="M31.5349 2.72522C32.4887 2.86148 32.4887 2.86148 33.4619 3.0005C33.4619 3.32349 33.4619 3.64649 33.4619 3.97927C32.7603 4.66938 32.7603 4.66938 31.7796 5.47801C30.2386 6.77159 28.8822 8.12095 27.5281 9.6072C21.9785 15.1568 14.3619 16.756 6.75979 16.795C6.03562 16.7724 5.31144 16.7455 4.58814 16.7033C4.58814 17.0263 4.58814 17.3493 4.58814 17.682C4.26515 17.682 3.94216 17.682 3.60938 17.682C3.74354 16.0721 3.97075 15.3692 5.10047 14.1856C6.91846 13.0434 8.41532 13.0498 10.4914 13.0635C15.9856 12.9143 20.5632 11.1456 24.6529 7.40496C25.3773 6.6102 26.1012 5.81492 26.8246 5.01921C28.3796 3.40192 29.2621 2.71453 31.5349 2.72522Z" fill="#8DC1EA"/>
<path d="M19.269 9.36258C19.269 10.4943 19.269 10.4943 18.7796 11.8095C15.8693 13.5072 12.815 13.4776 9.52047 13.4531C7.56256 13.4894 6.66757 13.6674 5.12843 14.9179C3.36734 17.1331 2.8185 18.2504 3.11928 21.1078C3.76198 21.77 4.41369 22.4236 5.07682 23.0654C4.95447 24.4112 4.95447 24.4112 4.58743 25.5123C2.94652 24.9357 1.7709 24.4385 0.672351 23.0654C-0.128516 20.6628 -0.263164 18.3984 0.626471 15.9941C1.89352 13.5372 3.0768 12.1617 5.5662 10.8307C7.02697 10.5005 8.47839 10.3811 9.97066 10.2802C12.8623 10.0559 16.6571 8.35801 19.269 9.36258Z" fill="#132D5F"/>
<path d="M51.4718 13C51.7948 13 52.1178 13 52.4506 13C52.4506 14.4535 52.4506 15.9069 52.4506 17.4045C51.9661 17.243 51.4816 17.0815 50.9824 16.9151C51.1439 15.6231 51.3054 14.3311 51.4718 13Z" fill="#3B4C68"/>
<path d="M9.48938 15C9.65088 15.323 9.81238 15.646 9.97877 15.9788C11.7552 15.9788 13.5317 15.9788 15.362 15.9788C15.362 16.1403 15.362 16.3018 15.362 16.4682C13.5855 16.4682 11.8091 16.4682 9.97877 16.4682C9.97877 16.7911 9.97877 17.1141 9.97877 17.4469C9.65578 17.4469 9.33278 17.4469 9 17.4469C9.1615 16.6394 9.32299 15.832 9.48938 15Z" fill="#6AB3E5"/>
</svg>
