<svg width="24" height="13" viewBox="0 0 24 13" fill="none" xmlns="http://www.w3.org/2000/svg">
<path d="M3.62785 0.0092372C4.22315 0.00466478 4.22315 0.00466478 4.83047 0C5.25718 0.00450711 5.68389 0.00901422 6.12353 0.0136579C6.78322 0.013292 6.78322 0.013292 7.45625 0.0129186C8.38595 0.0140639 9.31564 0.0188231 10.2453 0.0269201C11.6695 0.0384654 13.0933 0.0369821 14.5176 0.0337303C15.4206 0.0364596 16.3235 0.039939 17.2264 0.0442445C17.6532 0.0437985 18.0799 0.0433524 18.5195 0.0428929C18.9164 0.0475577 19.3132 0.0522225 19.7221 0.0570287C20.2453 0.0604109 20.2453 0.0604109 20.779 0.0638614C21.7074 0.191442 21.7074 0.191442 23.1755 1.17021C23.3422 2.17981 23.3422 2.17981 23.3189 3.40685C23.3118 4.06451 23.3118 4.06451 23.3046 4.73546C23.2923 5.19409 23.28 5.65271 23.2673 6.12524C23.2574 6.81885 23.2574 6.81885 23.2472 7.52648C23.2299 8.67057 23.2057 9.8141 23.1755 10.9579C20.5213 11.7014 18.2086 12.0619 15.4314 12.0667C14.9107 12.0681 14.9107 12.0681 14.3795 12.0695C13.6529 12.0702 12.9262 12.0684 12.1996 12.0643C11.0914 12.059 9.98357 12.0643 8.87536 12.0705C8.16518 12.0699 7.45499 12.0686 6.74481 12.0667C6.10596 12.0656 5.46711 12.0645 4.8089 12.0633C3.09536 11.9355 1.44031 11.7344 0.174439 10.4685C0.0992828 9.01454 0.0610577 7.5798 0.0520927 6.12524C0.0419992 5.7196 0.0319056 5.31397 0.0215062 4.89604C0.0189828 4.50554 0.0164594 4.11505 0.0138595 3.71272C0.00928588 3.35448 0.00471224 2.99623 0 2.62714C0.369045 0.580202 1.68951 0.00752522 3.62785 0.0092372Z" fill="#223664"/>
<path d="M3.11035 3.12756C8.92425 3.12756 14.7381 3.12756 20.7282 3.12756C20.7282 5.06553 20.7282 7.00349 20.7282 9.00018C14.9143 9.00018 9.10042 9.00018 3.11035 9.00018C3.11035 7.06222 3.11035 5.12425 3.11035 3.12756Z" fill="#65A4C8"/>
<path d="M3.11035 3.12756C8.92425 3.12756 14.7381 3.12756 20.7282 3.12756C20.5667 3.45056 20.4052 3.77355 20.2388 4.10633C18.9456 4.32766 17.6876 4.49603 16.3849 4.62631C13.6249 4.90087 13.6249 4.90087 10.9405 5.57449C10.0145 5.68303 9.08631 5.77325 8.15713 5.84977C7.67075 5.89077 7.18437 5.93178 6.68324 5.97403C6.31167 6.00368 5.94011 6.03333 5.55728 6.06387C5.39578 6.87136 5.23428 7.67884 5.06789 8.5108C4.4219 8.5108 3.77592 8.5108 3.11035 8.5108C3.11035 6.73433 3.11035 4.95786 3.11035 3.12756Z" fill="#E1EFF7"/>
<path d="M14.3662 3.12756C16.4657 3.12756 18.5651 3.12756 20.7282 3.12756C20.5667 3.45056 20.4052 3.77355 20.2388 4.10633C19.0135 4.30897 19.0135 4.30897 17.5166 4.4122C17.0214 4.44879 16.5262 4.48538 16.016 4.52308C15.633 4.54705 15.2501 4.57102 14.8556 4.59572C14.6941 4.11123 14.5326 3.62674 14.3662 3.12756Z" fill="#D5EAF3"/>
<path d="M5.55713 6.06384C6.52611 6.06384 7.49509 6.06384 8.49344 6.06384C8.49344 6.54833 8.49344 7.03283 8.49344 7.532C7.52446 7.532 6.55547 7.532 5.55713 7.532C5.55713 7.04751 5.55713 6.56302 5.55713 6.06384Z" fill="#162B63"/>
</svg>
