<svg width="50" height="103" viewBox="0 0 50 103" fill="none" xmlns="http://www.w3.org/2000/svg">
<path d="M34.9239 0.0770638C35.4632 0.0628697 36.0026 0.0486756 36.5583 0.0340514C37.0775 0.0299509 37.5967 0.0258504 38.1316 0.0216257C38.6072 0.0144892 39.0828 0.00735272 39.5728 0C41.2343 0.297419 41.7872 0.872347 42.8152 2.18754C43.2316 3.52378 43.5551 4.76906 43.8245 6.1332C43.9719 6.83248 44.1204 7.53151 44.27 8.23029C44.3474 8.59835 44.4248 8.96641 44.5045 9.34563C44.7875 10.5709 45.134 11.7665 45.4877 12.9731C46.4776 16.5533 46.9832 20.2015 47.4949 23.8734C47.5476 24.2485 47.6003 24.6236 47.6546 25.0101C49.1867 36.0279 49.746 46.9849 49.7889 58.0998C49.7916 58.5176 49.7943 58.9354 49.797 59.3659C49.8554 71.6204 49.7021 88.321 40.6015 97.5889C34.5967 102.58 25.7866 102.665 18.3459 102.022C14.9135 101.345 11.744 99.9187 9.53701 97.1282C6.87936 92.5173 5.66258 87.2512 4.45964 82.1102C4.35729 81.6761 4.25493 81.242 4.14947 80.7948C3.34927 77.3751 2.58124 73.9485 1.8292 70.5179C1.72613 70.05 1.62307 69.5821 1.51688 69.1001C1.37246 68.4336 1.37246 68.4336 1.22511 67.7537C1.14074 67.3654 1.05636 66.9772 0.969428 66.5773C0.239255 62.7681 0.14481 59.0989 0.122085 55.2208C0.118135 54.5797 0.114185 53.9386 0.110115 53.2781C0.102799 51.9265 0.0979647 50.5749 0.0942463 49.2232C0.0888088 47.4948 0.0719303 45.7666 0.0525632 44.0383C0.0366868 42.3826 0.0344873 40.7269 0.0303252 39.0711C0.0174729 38.1427 0.0174729 38.1427 0.00436097 37.1956C0.0057927 36.619 0.00722443 36.0424 0.00869955 35.4483C0.0058287 34.9424 0.00295784 34.4365 0 33.9153C0.301157 32.1667 0.973643 31.3443 2.19624 30.0825C3.22375 29.7537 3.22375 29.7537 4.322 29.7154C4.72756 29.6919 5.13311 29.6684 5.55096 29.6441C5.97812 29.6273 6.40529 29.6104 6.84539 29.5931C12.0914 29.2289 17.0732 28.2085 20.7929 24.2099C22.5666 21.3397 23.2892 18.8366 23.3258 15.4659C23.3375 14.9114 23.3492 14.3569 23.3612 13.7856C23.3821 12.6234 23.3975 11.4611 23.4071 10.2987C23.5355 5.0341 23.5355 5.0341 25.6867 2.67692C28.7672 -0.0368606 30.9328 0.111829 34.9239 0.0770638Z" fill="#3B9FE2"/>
<path d="M34.9239 0.0770638C35.4632 0.0628697 36.0026 0.0486756 36.5583 0.0340514C37.0775 0.0299509 37.5967 0.0258504 38.1316 0.0216257C38.6072 0.0144892 39.0828 0.00735272 39.5728 0C41.2343 0.297419 41.7872 0.872347 42.8152 2.18754C43.2316 3.52378 43.5551 4.76906 43.8245 6.1332C43.9719 6.83248 44.1204 7.53151 44.27 8.23029C44.3474 8.59835 44.4248 8.96641 44.5045 9.34563C44.7875 10.5709 45.134 11.7665 45.4877 12.9731C46.4776 16.5533 46.9832 20.2015 47.4949 23.8734C47.5476 24.2485 47.6003 24.6236 47.6546 25.0101C49.1867 36.0279 49.746 46.9849 49.7889 58.0998C49.7916 58.5176 49.7943 58.9354 49.797 59.3659C49.8554 71.6204 49.7021 88.321 40.6015 97.5889C34.5967 102.58 25.7866 102.665 18.3459 102.022C14.9135 101.345 11.744 99.9187 9.53701 97.1282C6.87936 92.5173 5.66258 87.2512 4.45964 82.1102C4.35729 81.6761 4.25493 81.242 4.14947 80.7948C3.34927 77.3751 2.58124 73.9485 1.8292 70.5179C1.72613 70.05 1.62307 69.5821 1.51688 69.1001C1.37246 68.4336 1.37246 68.4336 1.22511 67.7537C1.14074 67.3654 1.05636 66.9772 0.969428 66.5773C0.239255 62.7681 0.14481 59.0989 0.122085 55.2208C0.118135 54.5797 0.114185 53.9386 0.110115 53.2781C0.102799 51.9265 0.0979647 50.5749 0.0942463 49.2232C0.0888088 47.4948 0.0719303 45.7666 0.0525632 44.0383C0.0366868 42.3826 0.0344873 40.7269 0.0303252 39.0711C0.0174729 38.1427 0.0174729 38.1427 0.00436097 37.1956C0.0057927 36.619 0.00722443 36.0424 0.00869955 35.4483C0.0058287 34.9424 0.00295784 34.4365 0 33.9153C0.301157 32.1667 0.973643 31.3443 2.19624 30.0825C3.22375 29.7537 3.22375 29.7537 4.322 29.7154C4.72756 29.6919 5.13311 29.6684 5.55096 29.6441C5.97812 29.6273 6.40529 29.6104 6.84539 29.5931C12.0914 29.2289 17.0732 28.2085 20.7929 24.2099C22.5666 21.3397 23.2892 18.8366 23.3258 15.4659C23.3375 14.9114 23.3492 14.3569 23.3612 13.7856C23.3821 12.6234 23.3975 11.4611 23.4071 10.2987C23.5355 5.0341 23.5355 5.0341 25.6867 2.67692C28.7672 -0.0368606 30.9328 0.111829 34.9239 0.0770638ZM27.1549 5.12385C26.5193 6.39498 26.6036 7.33544 26.5967 8.75791C26.4275 20.553 26.4275 20.553 23.7292 25.1886C23.4652 25.6457 23.4652 25.6457 23.1958 26.112C20.3071 30.1931 15.4769 31.4675 10.8312 32.2771C8.91018 32.5489 6.99904 32.7607 5.06181 32.8678C4.03469 32.9482 4.03469 32.9482 3.17501 33.9976C3.00814 35.1217 3.00814 35.1217 3.00953 36.4425C2.9987 36.956 2.98787 37.4695 2.97672 37.9986C2.97087 38.5601 2.96502 39.1215 2.95899 39.7C2.95085 40.2826 2.94271 40.8651 2.93433 41.4653C2.9135 43.3704 2.9044 45.2752 2.89973 47.1804C2.89866 47.5033 2.89759 47.8262 2.89649 48.1589C2.86725 59.0295 3.72663 69.0319 6.6007 79.5104C6.9089 80.7144 7.21606 81.9188 7.52212 83.1234C9.2324 90.5183 9.2324 90.5183 13.1156 96.8835C14.9929 97.9313 16.706 97.9297 18.7893 97.3645C19.7741 97.0078 20.7247 96.6098 21.6799 96.18C22.0221 96.0273 22.3643 95.8745 22.7168 95.7172C25.8455 94.2447 28.2414 92.3401 30.5806 89.7874C30.884 89.4682 31.1874 89.149 31.5001 88.8201C44.5733 73.6704 43.873 48.6896 42.6017 29.9683C42.2771 25.5924 41.8454 21.2285 41.347 16.8691C41.3091 16.5283 41.2711 16.1875 41.232 15.8363C41.1145 14.7884 40.9925 13.7412 40.8691 12.694C40.7968 12.0755 40.7245 11.4569 40.65 10.8196C40.3633 9.00737 39.9295 7.36318 39.3895 5.61323C39.7125 5.61323 40.0355 5.61323 40.3683 5.61323C40.126 4.402 40.126 4.402 39.8789 3.16631C33.081 2.10983 33.081 2.10983 27.1549 5.12385Z" fill="#163163"/>
<path d="M40.3684 4.63483C40.5299 4.63483 40.6914 4.63483 40.8578 4.63483C42.8289 12.6548 44.5512 20.5961 45.5681 28.7982C45.6285 29.2775 45.6888 29.7568 45.7509 30.2506C46.7169 38.4405 46.8339 46.649 46.848 54.8866C46.8527 56.5582 46.868 58.2294 46.8834 59.9009C46.9314 69.8798 46.4726 79.9098 42.8154 89.2984C42.6293 89.7804 42.4432 90.2624 42.2514 90.7589C40.4971 94.7519 37.8681 96.6072 33.9147 98.2603C30.622 99.521 27.5555 99.6784 24.0658 99.6979C23.3963 99.713 23.3963 99.713 22.7133 99.7285C19.7668 99.7453 17.615 99.3078 14.9204 98.1074C14.9204 97.9459 14.9204 97.7844 14.9204 97.618C15.4453 97.507 15.9701 97.3959 16.5109 97.2815C23.9095 95.4056 29.5306 91.6538 33.626 85.1826C47.2712 62.1689 43.0505 30.8532 39.3897 5.6136C39.7127 5.6136 40.0356 5.6136 40.3684 5.6136C40.3684 5.2906 40.3684 4.96761 40.3684 4.63483Z" fill="#1456A5"/>
<path d="M27.6447 45.2535C27.4832 46.8685 27.3217 48.4835 27.1553 50.1474C26.5093 49.9859 25.8633 49.8244 25.1978 49.658C25.2785 49.2744 25.3593 48.8909 25.4425 48.4957C25.7177 47.2688 25.7177 47.2688 25.6872 46.2323C24.8797 46.5553 24.0722 46.8783 23.2402 47.2111C23.036 48.8623 23.036 48.8623 23.2402 50.6368C24.2095 51.7162 24.2095 51.7162 25.6872 52.1049C27.513 51.996 27.513 51.996 29.1128 51.6155C29.1128 49.8391 29.1128 48.0626 29.1128 46.2323C31.0428 47.1973 32.8078 48.2791 34.6184 49.4439C35.0954 49.7462 35.0954 49.7462 35.5819 50.0547C36.3709 50.5611 37.1476 51.0867 37.9218 51.6155C37.9218 51.777 37.9218 51.9385 37.9218 52.1049C36.9341 52.1846 35.9464 52.2642 34.9587 52.3439C33.8133 52.5326 33.8133 52.5326 33.0279 54.0625C32.8648 55.7958 32.8648 55.7958 33.0279 57.4882C33.9147 58.586 33.9147 58.586 35.1728 58.5625C35.8371 58.5455 35.8371 58.5455 36.5148 58.5281C37.1829 58.5149 37.1829 58.5149 37.8644 58.5013C38.3773 58.4843 38.3773 58.4843 38.9005 58.4669C38.3676 61.2846 37.7782 64.0422 36.943 66.7865C36.62 66.7865 36.297 66.7865 35.9642 66.7865C35.4749 66.134 34.9855 65.4814 34.4961 64.8289C34.1731 64.8289 33.8501 64.8289 33.5173 64.8289C33.2751 65.3134 33.2751 65.3134 33.0279 65.8077C33.5124 66.0499 33.5124 66.0499 34.0067 66.2971C33.8452 67.1046 33.6837 67.9121 33.5173 68.744C32.3868 68.5825 31.2564 68.421 30.0916 68.2546C29.9301 68.9006 29.7686 69.5466 29.6022 70.2122C30.4097 70.5352 31.2172 70.8582 32.0492 71.1909C32.0492 71.3524 32.0492 71.5139 32.0492 71.6803C30.1112 71.6803 28.1732 71.6803 26.1765 71.6803C26.4995 72.5887 26.8225 73.4972 27.1553 74.4331C28.0903 77.0629 28.5566 79.1936 27.6753 81.8962C26.6659 82.9362 26.6659 82.9362 25.6222 83.1044C22.6738 83.1423 22.6738 83.1423 21.2827 82.4468C20.7373 81.2996 20.2495 80.1696 19.7839 78.9905C19.5866 78.5178 19.5866 78.5178 19.3854 78.0356C18.727 76.389 18.2836 74.9212 18.1342 73.1504C17.9528 71.2742 17.3068 69.9472 16.4185 68.3027C15.4961 66.4779 14.9181 64.5431 14.309 62.5961C14.1121 62.0004 14.1121 62.0004 13.9113 61.3927C13.1738 59.0617 12.6855 57.0229 12.9631 54.5518C14.6711 51.4269 17.8364 49.5103 20.7933 47.7005C21.139 47.4614 21.4847 47.2223 21.8409 46.9759C23.8429 45.6119 25.1335 44.9396 27.6447 45.2535Z" fill="#7BC8F8"/>
<path d="M39.8781 3.16657C40.1203 4.3778 40.1203 4.3778 40.3674 5.6135C39.8306 5.63179 39.2937 5.65009 38.7406 5.66894C38.0288 5.70108 37.3171 5.7336 36.6053 5.76643C36.2523 5.77747 35.8994 5.78851 35.5357 5.79988C33.3486 5.90974 31.8791 6.18584 30.0904 7.57104C29.4755 8.80066 29.5235 9.68453 29.4977 11.0598C29.4769 11.8201 29.4769 11.8201 29.4557 12.5958C29.4305 13.6574 29.4088 14.719 29.3907 15.7807C29.2244 21.3957 27.7765 25.6962 23.9788 29.9126C20.2259 33.4234 15.8598 35.5637 10.7883 36.0548C10.4305 36.0943 10.0726 36.1338 9.70387 36.1745C8.8329 36.2699 7.96115 36.3581 7.08926 36.4448C7.05151 39.7682 7.02611 43.0916 7.00861 46.4153C7.00131 47.5419 6.99135 48.6685 6.9785 49.7951C6.90276 56.618 7.17602 63.0366 8.55742 69.7229C8.72527 70.7213 8.88947 71.7203 9.0468 72.7204C9.12566 73.1803 9.20451 73.6402 9.28576 74.114C9.46878 75.1968 9.63907 76.2817 9.80191 77.3677C10.8027 83.4878 12.6883 89.3639 15.5178 94.8957C16.3876 96.6391 16.3876 96.6391 16.3876 97.6179C14.3689 97.524 13.6267 97.3109 12.201 95.8286C8.03424 90.5296 7.11569 81.5132 5.62111 75.1062C5.50753 74.6265 5.39395 74.1469 5.27693 73.6527C3.39 65.5058 2.82661 57.6999 2.93582 49.3489C2.96058 47.4166 2.96595 45.4848 2.96868 43.5523C2.97555 42.3199 2.98347 41.0875 2.99257 39.8552C2.9952 39.2793 2.99782 38.7033 3.00053 38.11C3.00835 37.5829 3.01617 37.0557 3.02424 36.5126C3.02944 36.0489 3.03465 35.5852 3.04001 35.1075C3.17418 33.9978 3.17418 33.9978 4.15295 33.0191C5.14534 32.7965 5.14534 32.7965 6.35901 32.6539C7.02329 32.5692 7.02329 32.5692 7.70099 32.4828C8.62745 32.3727 9.55396 32.2631 10.4805 32.154C15.3554 31.5309 19.7812 30.1905 22.9981 26.2403C26.2881 21.2955 26.386 16.4133 26.3473 10.6259C26.405 6.46267 26.405 6.46267 27.7849 4.55061C31.6654 1.93377 35.3811 2.50035 39.8781 3.16657Z" fill="#8CC2EB"/>
<path d="M17.8577 52.5945C19.7605 53.6123 20.4302 54.6426 21.0693 56.632C21.2349 57.2158 21.2349 57.2158 21.4038 57.8115C21.761 58.9201 22.2161 59.7668 22.8127 60.7611C24.2339 63.4717 24.4303 66.7089 24.2197 69.723C23.4657 70.7434 22.9015 71.1162 21.7728 71.6806C19.1921 71.9611 19.1921 71.9611 17.8405 70.8949C16.6824 69.4836 16.2056 68.2096 15.6249 66.4808C15.4205 65.8733 15.2161 65.2658 15.0055 64.6399C14.8162 64.0564 14.627 63.4728 14.432 62.8716C14.273 62.4042 14.1141 61.9367 13.9503 61.4551C13.1889 59.1171 12.6164 57.0336 12.9638 54.5521C14.3064 52.5382 15.5019 52.2099 17.8577 52.5945Z" fill="#F26A3D"/>
<path d="M23.7296 65.808C24.0525 65.9695 24.3755 66.131 24.7083 66.2974C25.1517 67.7451 25.3937 69.2142 25.6871 70.7018C27.6251 70.7018 29.563 70.7018 31.5597 70.7018C31.7212 71.0248 31.8827 71.3478 32.0491 71.6806C30.1111 71.6806 28.1732 71.6806 26.1765 71.6806C26.4995 72.589 26.8225 73.4974 27.1552 74.4334C28.0903 77.0632 28.5565 79.1938 27.6752 81.8965C26.6659 82.9365 26.6659 82.9365 25.6221 83.1047C22.6737 83.1426 22.6737 83.1426 21.2826 82.4471C20.7372 81.2999 20.2494 80.1699 19.7839 78.9908C19.6524 78.6757 19.5208 78.3606 19.3853 78.0359C18.47 75.7464 18.0787 73.6468 17.8569 71.1912C19.2907 71.2151 19.2907 71.2151 20.7244 71.239C21.9384 71.2183 21.9384 71.2183 23.7296 70.7018C23.7296 69.0869 23.7296 67.4719 23.7296 65.808Z" fill="#7BC9F8"/>
<path d="M26.5738 54.6137C28.0559 55.2065 29.28 56.083 30.5807 56.9994C30.3036 59.2948 30.0006 61.5727 29.6019 63.8508C27.6639 63.8508 25.726 63.8508 23.7293 63.8508C22.7603 61.7514 21.7913 59.6519 20.793 57.4888C21.6373 57.0109 22.4816 56.533 23.3259 56.0551C25.8658 54.5648 25.8658 54.5648 26.5738 54.6137Z" fill="#3D9EE1"/>
<path d="M17.8562 52.5941C19.7011 53.619 20.2041 54.2435 20.8537 56.2645C20.7925 57.9774 20.7925 57.9774 19.8138 59.1702C18.0012 60.1143 16.9382 60.2285 14.9199 59.9349C13.7271 59.1702 13.7271 59.1702 12.9624 57.9774C12.6845 56.0321 12.6573 55.0093 13.7576 53.3588C15.2798 52.3573 16.0635 52.3014 17.8562 52.5941Z" fill="#835446"/>
<path d="M19.5593 64.1487C20.2151 64.1827 20.2151 64.1827 20.8841 64.2175C21.3251 64.2352 21.766 64.2528 22.2203 64.271C22.7247 64.3051 22.7247 64.3051 23.2393 64.3398C24.1172 66.2054 24.4421 67.6614 24.218 69.7231C23.4619 70.7198 22.8862 71.1231 21.7711 71.6806C20.0376 71.8691 19.1467 71.8859 17.6725 70.916C16.5794 69.2764 16.6355 68.2314 16.8773 66.2974C17.6405 64.8998 17.9571 64.401 19.5593 64.1487Z" fill="#4F4B4D"/>
<path d="M25.6871 45.7432C26.0101 45.9047 26.3331 46.0662 26.6659 46.2325C26.1814 46.9593 26.1814 46.9593 25.6871 47.7007C25.6871 48.3467 25.6871 48.9927 25.6871 49.6582C26.1716 49.8197 26.6561 49.9812 27.1553 50.1476C27.1553 48.8557 27.1553 47.5637 27.1553 46.2325C27.8013 46.2325 28.4472 46.2325 29.1128 46.2325C29.8591 47.7251 29.7175 48.9938 29.6022 50.637C28.8515 51.8223 28.2837 52.05 26.9717 52.5334C25.3096 52.6125 24.5686 52.0858 23.2402 51.1264C22.7508 50.637 22.7508 50.637 22.7202 48.8936C22.7303 48.3384 22.7404 47.7833 22.7508 47.2113C23.7123 46.6888 24.693 46.2005 25.6871 45.7432Z" fill="#2EADF9"/>
<path d="M37.4319 52.1055C37.9164 52.4285 38.4008 52.7515 38.9 53.0843C38.9918 54.3689 38.9918 54.3689 38.9 55.5312C38.577 55.3697 38.254 55.2082 37.9213 55.0418C36.7194 56.8455 36.7194 56.8455 36.4531 58.9569C35.1302 59.0642 34.2804 59.1177 33.1192 58.4369C32.2073 56.9491 32.3587 55.767 32.538 54.0631C33.5749 51.6843 35.0255 51.8477 37.4319 52.1055Z" fill="#24A8F9"/>
<path d="M33.5171 64.3398C34.1631 64.6628 34.8091 64.9858 35.4747 65.3186C35.4879 66.0323 35.4974 66.746 35.5053 67.4597C35.5109 67.8571 35.5166 68.2545 35.5225 68.664C35.4747 69.7231 35.4747 69.7231 34.9853 70.7018C34.2716 70.7151 33.5579 70.7246 32.8442 70.7324C32.4468 70.7381 32.0494 70.7438 31.6399 70.7496C30.5808 70.7018 30.5808 70.7018 29.6021 70.2125C29.7635 69.082 29.925 67.9515 30.0914 66.7868C30.2529 67.2713 30.4144 67.7558 30.5808 68.2549C32.0343 68.4972 32.0343 68.4972 33.5171 68.7443C33.5171 68.3809 33.5171 68.0176 33.5171 67.6432C33.5171 66.5421 33.5171 65.441 33.5171 64.3398Z" fill="#25A6FA"/>
<path d="M33.5173 64.34C33.3558 64.8245 33.1943 65.309 33.0279 65.8082C33.3509 65.9697 33.6739 66.1312 34.0066 66.2975C33.8451 67.105 33.6836 67.9125 33.5173 68.7445C32.9722 68.6435 32.4272 68.5426 31.8656 68.4386C31.2802 68.378 30.6947 68.3175 30.0916 68.2551C29.7686 68.5781 29.4456 68.9011 29.1128 69.2339C29.1128 67.7804 29.1128 66.3269 29.1128 64.8294C30.5597 64.1059 31.923 64.3105 33.5173 64.34Z" fill="#2AADFC"/>
<path d="M19.8145 54.5521C20.7933 55.5309 20.7933 55.5309 20.8544 56.8155C20.8342 57.1991 20.8141 57.5826 20.7933 57.9778C19.124 57.9778 17.5482 57.7373 15.8994 57.4884C16.0609 56.6809 16.2224 55.8735 16.3888 55.0415C16.6815 55.2131 16.9742 55.3847 17.2758 55.5615C18.3993 56.1833 18.3993 56.1833 19.8145 55.5309C19.8145 55.2079 19.8145 54.8849 19.8145 54.5521Z" fill="#8A6559"/>
<path d="M27.6443 45.2534C27.4828 46.8684 27.3213 48.4834 27.155 50.1473C26.509 49.9858 25.863 49.8243 25.1974 49.6579C25.3185 49.0826 25.3185 49.0826 25.4421 48.4956C25.7173 47.2687 25.7173 47.2687 25.6868 46.2322C24.7178 46.5552 23.7488 46.8782 22.7505 47.211C22.7505 46.888 22.7505 46.565 22.7505 46.2322C24.4154 45.2077 25.7126 45.1656 27.6443 45.2534Z" fill="#37AFF5"/>
<path d="M25.6868 45.7432C26.0098 45.9047 26.3328 46.0662 26.6656 46.2325C24.708 49.4485 24.708 49.4485 22.7505 50.1476C22.7505 49.1786 22.7505 48.2097 22.7505 47.2113C23.712 46.6888 24.6926 46.2005 25.6868 45.7432Z" fill="#1DA9FB"/>
<path d="M23.7295 65.808C24.0525 65.9695 24.3755 66.131 24.7083 66.2974C25.018 67.6298 25.018 67.6298 25.2588 69.2643C25.3409 69.8049 25.4229 70.3455 25.5074 70.9026C25.5667 71.3208 25.626 71.7391 25.6871 72.17C24.3951 72.0085 23.1031 71.847 21.772 71.6806C22.418 71.3576 23.0639 71.0346 23.7295 70.7018C23.7295 69.0869 23.7295 67.4719 23.7295 65.808Z" fill="#5EB3EB"/>
<path d="M37.432 54.5521C37.9165 54.8751 38.401 55.1981 38.9002 55.5309C39.0531 56.7544 39.0531 56.7544 38.9002 57.9778C38.5772 58.3008 38.2542 58.6238 37.9214 58.9566C36.8815 58.7731 36.8815 58.7731 35.9639 58.4672C36.191 58.0433 36.191 58.0433 36.4227 57.6108C36.9063 56.5865 37.1956 55.6555 37.432 54.5521Z" fill="#1AA3F6"/>
<path d="M14.9202 56.0203C15.0817 56.6663 15.2432 57.3122 15.4096 57.9778C16.217 58.1393 17.0245 58.3008 17.8565 58.4672C17.372 59.1939 17.372 59.1939 16.8777 59.9353C16.0702 59.7738 15.2627 59.6123 14.4308 59.446C14.2693 58.8 14.1078 58.154 13.9414 57.4884C14.2644 57.4884 14.5874 57.4884 14.9202 57.4884C14.9202 57.0039 14.9202 56.5194 14.9202 56.0203Z" fill="#844C39"/>
<path d="M27.644 45.7432C28.1285 45.9047 28.613 46.0662 29.1121 46.2325C29.2736 47.04 29.4351 47.8475 29.6015 48.6795C29.2785 48.6795 28.9555 48.6795 28.6228 48.6795C28.4613 49.164 28.2998 49.6485 28.1334 50.1476C27.3408 48.8889 27.133 48.3483 27.3381 46.8443C27.4391 46.4809 27.54 46.1175 27.644 45.7432Z" fill="#20A6F9"/>
<path d="M15.4097 56.0203C15.5712 56.5048 15.7327 56.9892 15.8991 57.4884C17.191 57.4884 18.483 57.4884 19.8141 57.4884C19.6526 58.1344 19.4911 58.7804 19.3247 59.446C18.5173 59.6075 17.7098 59.769 16.8778 59.9353C17.0393 59.4509 17.2008 58.9664 17.3672 58.4672C16.7212 58.3057 16.0752 58.1442 15.4097 57.9778C15.4097 57.3318 15.4097 56.6858 15.4097 56.0203Z" fill="#8E604D"/>
<path d="M34.985 54.5521C35.7925 54.7136 36.6 54.8751 37.4319 55.0415C37.2704 55.6875 37.1089 56.3335 36.9425 56.999C36.135 56.8376 35.3276 56.6761 34.4956 56.5097C34.6571 55.8637 34.8186 55.2177 34.985 54.5521Z" fill="#D2F1FD"/>
<path d="M19.3247 66.7867C20.5359 67.029 20.5359 67.029 21.7716 67.2761C21.6101 67.9221 21.4486 68.5681 21.2822 69.2337C20.6363 69.0722 19.9903 68.9107 19.3247 68.7443C19.3247 68.0983 19.3247 67.4523 19.3247 66.7867Z" fill="#E2E2E5"/>
<path d="M31.5597 66.2974C32.5287 66.5396 32.5287 66.5396 33.5172 66.7867C33.5172 67.4327 33.5172 68.0787 33.5172 68.7443C32.7098 68.5828 31.9023 68.4213 31.0703 68.2549C31.2318 67.6089 31.3933 66.9629 31.5597 66.2974Z" fill="#E6F6FD"/>
<path d="M22.261 61.4034C22.584 61.4034 22.907 61.4034 23.2398 61.4034C23.4013 62.3724 23.5628 63.3414 23.7292 64.3398C22.2757 64.3398 20.8222 64.3398 19.3247 64.3398C19.3247 64.1783 19.3247 64.0168 19.3247 63.8504C20.2937 63.8504 21.2627 63.8504 22.261 63.8504C22.261 63.0429 22.261 62.2354 22.261 61.4034Z" fill="#D56747"/>
<path d="M23.2399 56.0203C23.5629 56.1818 23.8859 56.3433 24.2187 56.5096C23.7293 57.4884 23.2399 58.4672 22.7505 59.446C22.266 59.2845 21.7815 59.123 21.2824 58.9566C21.1209 58.4721 20.9594 57.9876 20.793 57.4884C21.9553 56.7238 21.9553 56.7238 23.2399 56.0203Z" fill="#479BDB"/>
<path d="M16.3886 50.637C16.7116 50.637 17.0346 50.637 17.3673 50.637C18.8355 52.1051 18.8355 52.1051 18.8355 53.0839C17.5435 52.9224 16.2515 52.7609 14.9204 52.5945C15.5933 51.6157 15.5933 51.6157 16.3886 50.637Z" fill="#71B7EB"/>
<path d="M25.1973 47.7007C25.8433 47.7007 26.4892 47.7007 27.1548 47.7007C27.1548 48.5082 27.1548 49.3157 27.1548 50.1476C26.5088 49.9861 25.8628 49.8246 25.1973 49.6582C25.1973 49.0122 25.1973 48.3662 25.1973 47.7007Z" fill="#E6F4FC"/>
<path d="M16.3888 55.0415C16.8733 55.203 17.3578 55.3645 17.857 55.5309C17.857 56.1769 17.857 56.8229 17.857 57.4884C17.211 57.4884 16.565 57.4884 15.8994 57.4884C16.0609 56.6809 16.2224 55.8735 16.3888 55.0415Z" fill="#EAE6E6"/>
<path d="M37.432 52.1052C36.7212 53.9793 35.754 54.6111 34.0063 55.5309C34.0063 54.0628 34.0063 54.0628 34.8934 52.9922C35.9639 52.1052 35.9639 52.1052 37.432 52.1052Z" fill="#19A4F9"/>
<path d="M38.9001 58.4672C38.7386 59.2746 38.5771 60.0821 38.4107 60.9141C38.0877 60.7526 37.7647 60.5911 37.4319 60.4247C37.4319 60.1017 37.4319 59.7787 37.4319 59.4459C36.4629 59.4459 35.494 59.4459 34.4956 59.4459C34.4956 59.2844 34.4956 59.1229 34.4956 58.9565C37.799 58.4672 37.799 58.4672 38.9001 58.4672Z" fill="#6BC2F4"/>
<path d="M37.9221 3.1665C38.5681 3.1665 39.2141 3.1665 39.8797 3.1665C40.0412 3.97399 40.2027 4.78147 40.3691 5.61343C39.2386 5.61343 38.1081 5.61343 36.9434 5.61343C37.2563 5.47212 37.5692 5.33081 37.8915 5.18522C38.9753 4.71872 38.9753 4.71872 39.3903 3.65589C38.9058 3.49439 38.4213 3.33289 37.9221 3.1665Z" fill="#7DB7E3"/>
</svg>
