<svg xmlns="http://www.w3.org/2000/svg" xmlns:xlink="http://www.w3.org/1999/xlink" id="svg" version="1.1" width="400" height="382.00836820083686" viewBox="0, 0, 400,382.00836820083686"><g id="svgg"><path id="path0" d="M24.451 111.967 C 23.926 112.388,22.980 113.149,22.350 113.658 C 21.719 114.167,20.860 114.857,20.439 115.192 C 19.708 115.775,19.716 115.782,20.630 115.340 C 21.580 114.882,25.979 111.567,25.979 111.309 C 25.979 110.982,25.331 111.260,24.451 111.967 M121.649 181.645 C 121.036 182.121,117.956 184.371,114.804 186.644 C 111.652 188.917,105.979 193.011,102.197 195.741 C 88.323 205.758,86.463 207.027,82.904 208.911 C 65.836 217.941,45.264 217.535,28.469 207.836 C 19.596 202.711,11.985 194.856,7.087 185.768 C 6.047 183.839,5.130 182.326,5.049 182.407 C 4.862 182.594,8.394 194.904,8.782 195.415 C 8.941 195.626,9.459 197.173,9.933 198.854 C 10.407 200.535,11.203 203.251,11.701 204.891 C 12.200 206.530,12.607 208.120,12.607 208.425 C 12.607 208.729,12.747 208.978,12.918 208.978 C 13.089 208.978,13.622 210.396,14.103 212.130 C 14.583 213.863,15.294 216.313,15.681 217.574 C 16.069 218.835,16.585 220.640,16.829 221.585 C 17.072 222.531,17.390 223.391,17.536 223.496 C 17.682 223.601,18.119 224.804,18.506 226.170 C 20.238 232.278,21.497 236.382,21.964 237.440 C 22.242 238.071,23.276 241.423,24.263 244.890 C 25.250 248.357,26.194 251.366,26.361 251.576 C 26.528 251.786,27.462 254.795,28.436 258.262 C 29.409 261.729,30.436 264.995,30.717 265.521 C 30.998 266.046,32.047 269.398,33.049 272.970 C 34.050 276.543,34.997 279.551,35.154 279.656 C 35.310 279.761,36.253 282.770,37.249 286.342 C 38.245 289.914,39.205 293.019,39.383 293.241 C 39.560 293.464,40.584 296.711,41.658 300.456 C 42.732 304.202,43.778 307.544,43.983 307.883 C 44.188 308.223,45.191 311.337,46.212 314.804 C 47.233 318.271,48.417 322.053,48.843 323.209 C 49.269 324.365,50.256 327.631,51.038 330.468 C 51.819 333.305,52.598 335.681,52.769 335.749 C 52.940 335.817,53.192 336.469,53.329 337.199 C 53.878 340.128,53.829 337.985,53.261 334.257 C 49.116 307.045,65.074 280.341,90.544 271.865 C 99.618 268.846,99.616 268.846,126.743 268.934 C 140.661 268.980,150.907 268.869,150.907 268.673 C 150.907 268.056,149.683 264.187,149.426 263.992 C 149.288 263.887,148.602 261.738,147.903 259.217 C 146.236 253.205,145.499 250.854,145.209 250.621 C 145.078 250.516,144.043 247.163,142.908 243.171 C 141.773 239.179,140.728 235.826,140.585 235.721 C 140.442 235.616,139.497 232.607,138.487 229.035 C 137.476 225.463,136.528 222.455,136.380 222.350 C 136.232 222.245,135.206 218.935,134.099 214.995 C 132.993 211.055,131.957 207.832,131.799 207.832 C 131.640 207.832,131.427 207.359,131.325 206.781 C 131.013 205.005,127.917 194.663,127.637 194.460 C 127.492 194.355,126.540 191.313,125.522 187.699 C 123.531 180.630,123.340 180.331,121.649 181.645 " stroke="none" fill="#fb5b44" fill-rule="evenodd"/><path id="path1" d="M51.767 102.783 C 28.825 105.368,10.258 119.925,3.790 140.401 C 3.127 142.502,2.492 144.479,2.380 144.795 C 1.144 148.280,0.687 152.926,0.858 160.267 C 1.038 167.925,1.033 167.898,3.704 177.268 C 12.794 209.162,52.470 225.013,82.904 208.911 C 86.933 206.778,86.399 207.151,115.186 186.357 C 118.338 184.080,121.339 181.893,121.854 181.497 L 122.791 180.777 120.950 174.916 C 119.938 171.692,118.190 166.132,117.067 162.560 C 115.944 158.988,114.061 152.970,112.883 149.188 C 109.045 136.862,107.005 132.199,102.904 126.371 C 91.525 110.205,70.789 100.640,51.767 102.783 M63.694 135.397 C 65.421 135.957,67.006 136.711,67.216 137.071 C 67.427 137.432,67.604 137.589,67.610 137.421 C 67.626 136.994,70.130 138.868,72.326 140.950 C 74.286 142.808,76.559 146.216,76.992 147.947 C 77.137 148.524,77.419 148.997,77.619 148.997 C 77.819 148.997,77.883 149.157,77.762 149.353 C 77.641 149.548,77.710 149.812,77.914 149.938 C 78.118 150.064,78.189 150.420,78.070 150.729 C 77.952 151.037,78.064 151.289,78.320 151.289 C 78.624 151.289,78.701 151.618,78.544 152.245 C 78.393 152.847,78.466 153.200,78.743 153.200 C 79.040 153.200,79.102 153.691,78.936 154.728 C 78.787 155.665,78.842 156.256,79.079 156.256 C 79.565 156.256,79.591 158.807,79.108 159.106 C 78.912 159.227,78.848 159.925,78.967 160.656 C 79.109 161.529,79.032 161.987,78.744 161.987 C 78.466 161.987,78.393 162.338,78.544 162.942 C 78.697 163.552,78.623 163.897,78.338 163.897 C 78.093 163.897,77.998 164.069,78.128 164.279 C 78.258 164.489,78.228 164.876,78.061 165.138 C 77.894 165.401,77.747 165.702,77.733 165.807 C 77.085 170.805,68.085 178.942,61.484 180.498 C 57.396 181.462,48.138 181.024,48.138 179.867 C 48.138 179.674,47.978 179.614,47.784 179.734 C 47.378 179.985,45.410 179.195,44.992 178.613 C 44.809 178.360,44.707 178.357,44.699 178.606 C 44.692 178.832,44.573 178.819,44.407 178.572 C 44.252 178.344,43.352 177.706,42.407 177.155 C 34.691 172.657,30.323 161.660,32.567 152.382 C 33.292 149.385,34.680 145.921,35.393 145.330 C 35.672 145.099,35.796 144.806,35.668 144.678 C 35.095 144.105,42.247 137.651,44.811 136.427 C 50.288 133.814,57.585 133.416,63.694 135.397 M103.286 268.956 C 78.913 271.527,59.135 289.410,53.637 313.849 C 51.823 321.910,53.359 342.532,55.902 344.274 C 56.098 344.408,56.140 344.709,55.996 344.943 C 55.851 345.177,55.881 345.368,56.061 345.368 C 56.241 345.368,56.613 346.012,56.886 346.800 C 65.050 370.344,94.984 386.614,119.962 381.084 C 155.662 373.181,173.170 340.724,161.444 304.184 C 160.317 300.675,158.244 294.107,156.835 289.589 C 155.427 285.072,153.388 278.582,152.304 275.168 L 150.334 268.961 132.916 268.960 C 123.336 268.959,113.450 268.884,110.948 268.793 C 108.446 268.702,104.998 268.775,103.286 268.956 M112.604 302.446 C 113.537 302.572,114.124 302.826,113.988 303.045 C 113.844 303.279,114.066 303.326,114.565 303.167 C 115.065 303.008,115.377 303.075,115.377 303.340 C 115.377 303.576,115.549 303.664,115.759 303.534 C 115.969 303.404,117.743 304.241,119.702 305.394 C 125.059 308.547,129.176 313.833,130.097 318.740 C 130.244 319.522,130.500 320.245,130.666 320.348 C 130.833 320.451,130.885 320.860,130.781 321.256 C 130.677 321.653,130.779 322.092,131.008 322.233 C 131.579 322.587,131.568 328.940,130.997 328.940 C 130.745 328.940,130.660 329.285,130.790 329.780 C 130.910 330.241,130.874 330.800,130.710 331.021 C 130.545 331.242,130.189 332.197,129.918 333.142 C 128.700 337.397,124.509 343.093,121.341 344.799 C 120.582 345.207,119.962 345.684,119.962 345.859 C 119.962 346.034,119.790 346.071,119.580 345.941 C 119.370 345.811,119.198 345.897,119.198 346.132 C 119.198 346.367,119.026 346.453,118.816 346.323 C 118.606 346.193,118.434 346.256,118.434 346.464 C 118.434 347.745,109.930 349.408,105.463 349.000 C 102.285 348.710,97.105 347.167,96.016 346.186 C 95.633 345.841,94.828 345.305,94.227 344.994 C 90.944 343.298,85.196 335.177,85.196 332.236 C 85.196 331.919,85.040 331.563,84.850 331.445 C 84.659 331.328,84.593 330.888,84.703 330.468 C 84.813 330.048,84.754 329.704,84.572 329.704 C 84.171 329.704,84.175 322.023,84.576 321.374 C 84.732 321.123,84.748 320.737,84.612 320.518 C 84.477 320.299,84.530 319.912,84.731 319.659 C 84.932 319.405,85.314 318.510,85.581 317.670 C 87.211 312.525,91.783 307.135,96.275 305.062 C 97.641 304.432,98.868 303.765,99.002 303.580 C 99.136 303.396,99.437 303.363,99.671 303.508 C 99.904 303.652,100.096 303.570,100.096 303.325 C 100.096 303.080,100.342 302.974,100.644 303.090 C 100.946 303.205,101.250 303.127,101.320 302.916 C 101.614 302.034,107.680 301.782,112.604 302.446 " stroke="none" fill="#5d4844" fill-rule="evenodd"/><path id="path2" d="M196.067 0.283 C 197.476 0.356,199.883 0.357,201.416 0.284 C 202.949 0.211,201.796 0.151,198.854 0.151 C 195.912 0.150,194.658 0.210,196.067 0.283 M190.549 0.652 C 191.024 0.744,191.712 0.740,192.077 0.645 C 192.442 0.549,192.053 0.474,191.213 0.478 C 190.372 0.483,190.074 0.561,190.549 0.652 M204.807 0.522 C 204.895 0.600,206.084 0.758,207.450 0.874 C 209.015 1.007,209.509 0.972,208.787 0.779 C 207.620 0.467,204.518 0.267,204.807 0.522 M212.958 1.944 C 214.622 2.353,216.169 2.830,216.397 3.004 C 216.624 3.179,218.468 3.955,220.494 4.731 C 246.820 14.804,261.177 46.676,251.921 74.498 C 247.135 88.885,241.684 95.219,221.777 109.525 C 216.523 113.300,209.107 118.641,205.297 121.395 L 198.368 126.401 180.064 112.897 C 160.042 98.125,156.534 95.042,152.004 88.236 C 138.918 68.571,139.202 43.386,152.732 23.878 C 155.459 19.947,163.378 12.053,166.476 10.177 C 168.632 8.872,169.732 7.713,168.290 8.267 C 167.975 8.388,167.717 8.646,167.717 8.840 C 167.717 9.034,167.416 9.299,167.049 9.427 C 166.681 9.556,164.833 10.811,162.942 12.216 C 161.051 13.621,158.783 15.225,157.903 15.780 C 157.023 16.336,155.905 17.152,155.420 17.594 C 154.934 18.036,153.591 19.011,152.436 19.761 C 151.280 20.511,150.076 21.366,149.761 21.661 C 148.708 22.645,144.430 25.597,144.056 25.597 C 143.853 25.597,143.549 25.836,143.381 26.129 C 143.213 26.422,142.012 27.365,140.713 28.226 C 139.414 29.086,138.247 29.957,138.121 30.161 C 137.995 30.365,136.480 31.481,134.753 32.640 C 130.697 35.363,126.421 38.416,125.692 39.108 C 125.377 39.407,123.787 40.532,122.159 41.608 C 120.530 42.684,119.198 43.722,119.198 43.915 C 119.198 44.108,118.881 44.366,118.494 44.489 C 117.876 44.685,114.529 46.987,113.175 48.147 C 112.909 48.374,111.533 49.343,110.118 50.299 C 108.703 51.254,107.373 52.244,107.163 52.497 C 106.953 52.751,105.578 53.769,104.107 54.759 C 100.712 57.045,96.366 60.152,95.129 61.178 C 94.604 61.613,93.032 62.712,91.637 63.620 C 90.241 64.528,89.038 65.413,88.962 65.587 C 88.887 65.761,87.536 66.760,85.960 67.807 C 84.384 68.855,82.840 69.957,82.528 70.257 C 82.217 70.556,81.013 71.402,79.854 72.136 C 78.694 72.870,77.110 74.003,76.332 74.653 C 75.554 75.304,73.695 76.695,72.200 77.746 C 70.705 78.797,68.018 80.734,66.229 82.052 C 64.440 83.369,62.088 85.020,61.001 85.721 C 59.915 86.421,58.698 87.363,58.298 87.814 C 57.898 88.265,57.412 88.634,57.218 88.634 C 56.926 88.634,52.416 91.849,47.174 95.794 C 46.548 96.265,44.747 97.535,43.171 98.615 C 41.595 99.696,40.168 100.814,40.000 101.102 C 39.832 101.389,39.525 101.624,39.317 101.624 C 39.109 101.624,37.355 102.803,35.420 104.244 C 33.484 105.686,31.170 107.321,30.277 107.879 C 27.696 109.489,28.394 109.787,31.309 108.319 C 57.867 94.945,90.636 104.585,105.717 130.208 C 108.944 135.692,110.022 138.685,117.709 163.515 C 118.717 166.772,120.353 172.058,121.344 175.263 C 123.231 181.362,123.333 181.531,124.436 180.369 C 124.812 179.973,126.225 178.938,127.577 178.070 C 128.929 177.201,130.305 176.232,130.634 175.917 C 131.214 175.361,136.072 171.859,139.744 169.350 C 140.736 168.672,141.901 167.796,142.334 167.403 C 142.767 167.009,144.094 166.066,145.282 165.305 C 146.470 164.545,147.759 163.616,148.146 163.241 C 148.532 162.866,150.104 161.712,151.639 160.676 C 153.174 159.639,154.638 158.583,154.893 158.329 C 155.147 158.074,156.633 157.007,158.194 155.957 C 159.754 154.908,161.359 153.686,161.759 153.242 C 162.160 152.799,162.652 152.436,162.854 152.436 C 163.188 152.436,166.881 149.908,167.335 149.369 C 167.440 149.244,168.730 148.296,170.201 147.261 C 171.671 146.226,173.162 145.119,173.513 144.801 C 173.864 144.482,174.874 143.792,175.756 143.266 C 176.638 142.741,177.984 141.788,178.747 141.148 C 179.510 140.508,180.649 139.664,181.280 139.272 C 181.910 138.881,183.991 137.384,185.903 135.947 C 187.816 134.509,189.545 133.333,189.747 133.333 C 189.948 133.333,190.618 132.852,191.236 132.264 C 191.854 131.676,193.477 130.444,194.842 129.525 C 196.208 128.607,197.528 127.584,197.775 127.252 C 198.174 126.715,198.345 126.759,199.303 127.648 C 199.896 128.198,201.328 129.269,202.483 130.029 C 204.752 131.520,209.987 135.351,211.843 136.877 C 212.474 137.396,213.817 138.377,214.827 139.058 C 215.838 139.739,217.209 140.792,217.873 141.399 C 218.538 142.006,219.233 142.502,219.419 142.502 C 219.739 142.502,222.708 144.684,223.114 145.217 C 223.219 145.355,224.508 146.287,225.979 147.287 C 227.450 148.287,229.427 149.745,230.372 150.527 C 231.318 151.308,232.620 152.218,233.266 152.548 C 233.911 152.879,234.672 153.429,234.956 153.771 C 235.240 154.113,236.345 154.973,237.411 155.682 C 238.478 156.391,239.701 157.283,240.129 157.664 C 240.977 158.419,242.430 159.473,245.188 161.334 C 246.166 161.995,247.279 162.847,247.661 163.229 C 248.043 163.611,249.252 164.521,250.347 165.251 C 251.443 165.981,253.801 167.685,255.587 169.038 C 257.373 170.391,260.235 172.456,261.947 173.628 C 263.659 174.800,265.285 176.030,265.560 176.361 C 265.835 176.693,266.987 177.557,268.120 178.281 C 269.253 179.006,270.605 179.993,271.124 180.475 L 272.069 181.351 270.923 184.945 C 270.293 186.921,269.469 189.570,269.092 190.831 C 268.715 192.092,268.292 193.209,268.152 193.314 C 268.012 193.419,267.173 195.826,266.287 198.663 C 265.401 201.500,264.486 204.422,264.254 205.158 C 264.022 205.893,263.731 206.581,263.608 206.686 C 263.484 206.791,262.824 208.682,262.141 210.888 C 261.457 213.095,260.382 216.361,259.751 218.147 C 259.121 219.933,257.803 223.973,256.824 227.125 C 255.844 230.277,254.929 232.942,254.791 233.047 C 254.652 233.152,254.070 234.785,253.497 236.676 C 251.855 242.094,250.695 245.565,250.249 246.399 C 250.023 246.822,249.061 249.659,248.111 252.703 C 247.162 255.748,246.170 258.653,245.907 259.160 C 245.644 259.667,244.835 262.078,244.109 264.519 L 242.789 268.958 196.848 268.958 C 171.581 268.959,150.907 269.055,150.907 269.172 C 150.907 269.409,153.427 277.636,157.160 289.589 C 158.505 293.897,160.751 301.097,162.150 305.590 C 170.794 333.341,163.911 355.510,141.275 372.823 C 139.864 373.902,138.515 374.785,138.277 374.785 C 138.039 374.785,137.388 375.099,136.831 375.482 C 136.273 375.866,135.215 376.402,134.479 376.673 C 133.744 376.945,132.626 377.393,131.995 377.668 C 128.196 379.329,127.096 379.752,126.578 379.752 C 126.260 379.752,125.457 379.994,124.795 380.290 C 124.133 380.586,123.075 380.939,122.445 381.075 C 121.815 381.210,120.697 381.464,119.962 381.639 C 119.226 381.813,154.642 381.952,198.663 381.948 C 242.684 381.943,277.326 381.802,275.645 381.634 C 253.492 379.419,232.588 359.780,228.250 337.106 C 225.658 323.560,226.498 318.224,235.345 292.002 C 238.735 281.955,241.849 272.650,242.267 271.324 L 243.025 268.913 267.167 269.060 C 294.159 269.225,293.329 269.151,302.512 272.220 C 326.818 280.341,342.924 305.700,340.017 331.275 C 339.745 333.668,339.495 335.923,339.460 336.286 C 339.426 336.650,339.280 337.065,339.135 337.210 C 338.770 337.575,338.807 338.109,339.198 338.109 C 339.377 338.109,340.173 335.917,340.968 333.238 C 341.762 330.559,342.648 327.937,342.937 327.412 C 343.226 326.886,344.234 323.897,345.176 320.769 C 346.118 317.641,347.047 314.890,347.240 314.656 C 347.432 314.422,348.469 311.394,349.545 307.927 C 350.620 304.460,351.753 301.108,352.062 300.478 C 352.371 299.847,353.342 296.925,354.219 293.983 C 355.096 291.041,355.928 288.548,356.068 288.443 C 356.208 288.338,356.419 287.908,356.537 287.488 C 357.642 283.548,360.338 275.256,360.628 274.907 C 360.830 274.664,361.810 271.808,362.807 268.560 C 363.804 265.312,364.737 262.569,364.880 262.464 C 365.024 262.359,366.026 259.351,367.107 255.778 C 368.188 252.206,369.310 248.768,369.601 248.138 C 369.892 247.507,370.866 244.585,371.765 241.643 C 372.664 238.701,373.603 236.036,373.852 235.721 C 374.101 235.406,375.128 232.397,376.134 229.035 C 377.140 225.673,378.085 222.837,378.235 222.732 C 378.384 222.627,379.335 219.790,380.348 216.428 C 381.361 213.066,382.309 210.229,382.454 210.124 C 382.599 210.019,383.626 206.925,384.735 203.247 C 385.845 199.570,386.879 196.476,387.035 196.371 C 387.190 196.266,387.862 194.460,388.528 192.359 C 389.194 190.258,389.985 187.777,390.285 186.847 C 391.170 184.103,390.928 184.184,389.200 187.211 C 371.353 218.456,333.107 226.033,303.949 204.099 C 302.628 203.105,298.642 200.153,295.091 197.539 C 291.540 194.925,287.087 191.643,285.196 190.246 C 283.305 188.848,279.737 186.218,277.268 184.399 C 274.799 182.581,272.779 181.030,272.779 180.953 C 272.779 179.533,287.352 137.948,289.007 134.642 C 301.474 109.754,330.461 97.742,357.082 106.432 C 360.366 107.504,368.042 111.056,369.838 112.335 C 370.482 112.793,371.099 113.078,371.209 112.968 C 371.320 112.857,370.493 112.179,369.373 111.459 C 368.252 110.740,366.905 109.786,366.380 109.338 C 364.891 108.069,357.962 103.004,356.193 101.892 C 355.317 101.341,354.489 100.710,354.353 100.489 C 354.216 100.267,353.041 99.383,351.742 98.522 C 350.442 97.662,349.121 96.715,348.806 96.418 C 348.491 96.122,345.998 94.255,343.266 92.271 C 340.535 90.287,337.792 88.270,337.172 87.789 C 336.552 87.308,335.091 86.255,333.925 85.449 C 332.759 84.642,331.633 83.774,331.423 83.521 C 331.213 83.267,329.760 82.208,328.195 81.167 C 326.629 80.126,324.944 78.902,324.450 78.448 C 323.956 77.993,322.529 76.970,321.279 76.174 C 320.029 75.378,319.007 74.588,319.007 74.419 C 319.007 74.250,317.846 73.338,316.428 72.392 C 312.548 69.806,307.942 66.431,305.007 64.023 C 304.346 63.481,303.670 63.037,303.503 63.037 C 303.337 63.037,302.416 62.390,301.457 61.599 C 300.498 60.808,299.011 59.687,298.153 59.108 C 297.295 58.529,296.263 57.748,295.860 57.372 C 295.457 56.997,293.839 55.788,292.263 54.686 C 290.687 53.583,288.678 52.132,287.797 51.460 C 286.916 50.788,285.479 49.723,284.602 49.093 C 283.726 48.462,281.848 47.087,280.428 46.036 C 279.009 44.986,276.579 43.235,275.027 42.147 C 273.476 41.058,271.867 39.855,271.452 39.473 C 271.037 39.090,269.490 37.943,268.014 36.923 C 266.537 35.902,265.192 34.828,265.024 34.535 C 264.856 34.242,264.548 34.002,264.339 34.002 C 263.965 34.002,260.139 31.270,259.026 30.208 C 258.711 29.907,257.507 29.043,256.351 28.287 C 255.196 27.531,253.653 26.359,252.923 25.682 C 252.194 25.005,251.435 24.451,251.238 24.451 C 251.041 24.451,248.963 22.989,246.620 21.203 C 244.278 19.417,242.218 17.956,242.044 17.956 C 241.870 17.956,241.536 17.700,241.303 17.386 C 240.891 16.833,238.573 15.124,232.665 11.016 C 231.089 9.920,229.568 8.794,229.286 8.515 C 227.354 6.600,213.377 1.081,210.697 1.175 C 210.277 1.189,211.294 1.536,212.958 1.944 M182.426 2.091 C 180.374 2.767,181.182 2.793,183.572 2.128 C 184.623 1.836,185.138 1.594,184.718 1.592 C 184.298 1.589,183.266 1.814,182.426 2.091 M176.504 4.126 C 176.504 4.294,175.890 4.653,175.139 4.925 C 174.387 5.197,173.841 5.487,173.925 5.571 C 174.172 5.818,177.268 4.498,177.268 4.145 C 177.268 3.966,177.096 3.820,176.886 3.820 C 176.676 3.820,176.504 3.958,176.504 4.126 M169.797 7.419 C 169.389 7.717,169.141 8.046,169.246 8.150 C 169.351 8.254,169.842 8.010,170.338 7.608 C 171.376 6.767,170.910 6.604,169.797 7.419 M198.574 30.076 C 199.261 30.161,200.292 30.160,200.866 30.072 C 201.441 29.985,200.879 29.916,199.618 29.918 C 198.357 29.920,197.888 29.991,198.574 30.076 M203.056 30.405 C 203.477 30.514,204.164 30.754,204.585 30.939 C 205.005 31.123,206.036 31.483,206.877 31.739 C 209.474 32.529,212.219 33.970,213.784 35.365 C 216.570 37.849,218.147 39.498,218.147 39.930 C 218.147 40.166,218.663 40.937,219.293 41.643 C 219.924 42.349,220.814 44.090,221.272 45.512 C 221.730 46.934,222.254 48.005,222.437 47.893 C 222.622 47.778,222.613 47.491,222.418 47.244 C 222.225 47.000,221.849 46.113,221.583 45.272 C 219.250 37.905,211.318 31.223,203.916 30.390 C 203.023 30.289,202.636 30.296,203.056 30.405 M192.550 30.834 C 192.235 30.950,191.415 31.273,190.728 31.552 C 190.042 31.830,189.436 32.023,189.382 31.980 C 189.328 31.936,189.030 32.116,188.720 32.380 C 188.410 32.644,187.102 33.547,185.814 34.387 C 182.547 36.518,178.060 42.246,177.437 45.081 C 177.414 45.186,177.188 45.773,176.936 46.385 C 176.618 47.154,176.599 47.620,176.872 47.894 C 177.146 48.168,177.272 48.060,177.279 47.545 C 177.358 41.847,188.122 31.328,193.875 31.328 C 194.197 31.328,194.460 31.156,194.460 30.946 C 194.460 30.540,193.503 30.484,192.550 30.834 M176.122 49.261 C 176.122 49.669,176.294 50.109,176.504 50.239 C 176.721 50.373,176.886 50.052,176.886 49.497 C 176.886 48.960,176.714 48.520,176.504 48.520 C 176.294 48.520,176.122 48.853,176.122 49.261 M222.350 49.475 C 222.350 50.044,222.514 50.373,222.732 50.239 C 222.942 50.109,223.114 49.765,223.114 49.475 C 223.114 49.184,222.942 48.840,222.732 48.711 C 222.514 48.576,222.350 48.905,222.350 49.475 M175.740 53.677 C 175.740 55.333,175.902 56.543,176.122 56.543 C 176.343 56.543,176.504 55.333,176.504 53.677 C 176.504 52.022,176.343 50.812,176.122 50.812 C 175.902 50.812,175.740 52.022,175.740 53.677 M222.743 53.677 C 222.743 55.543,222.855 56.178,223.114 55.778 C 223.317 55.463,223.484 54.518,223.484 53.677 C 223.484 52.837,223.317 51.891,223.114 51.576 C 222.855 51.176,222.743 51.811,222.743 53.677 M222.214 58.175 C 222.084 59.063,221.874 60.220,221.746 60.745 C 221.530 61.639,221.554 61.630,222.121 60.610 C 222.455 60.010,222.640 59.377,222.532 59.203 C 222.425 59.030,222.512 58.780,222.725 58.648 C 223.200 58.355,223.239 57.047,222.782 56.765 C 222.600 56.652,222.345 57.287,222.214 58.175 M176.122 58.071 C 176.122 58.491,176.294 58.835,176.504 58.835 C 176.714 58.835,176.886 58.491,176.886 58.071 C 176.886 57.650,176.714 57.307,176.504 57.307 C 176.294 57.307,176.122 57.650,176.122 58.071 M176.504 59.722 C 176.504 62.727,183.207 71.646,187.122 73.852 C 189.361 75.113,188.388 73.884,185.864 72.263 C 184.499 71.386,183.379 70.542,183.377 70.387 C 183.375 70.232,182.589 69.255,181.630 68.215 C 179.872 66.309,177.965 62.749,177.474 60.458 C 177.215 59.250,176.504 58.710,176.504 59.722 M220.560 63.529 C 218.945 66.854,215.715 70.623,212.957 72.400 C 211.504 73.337,210.143 74.243,209.933 74.415 C 209.723 74.586,208.863 75.010,208.023 75.357 C 207.182 75.704,206.773 75.996,207.112 76.007 C 208.708 76.058,213.358 73.163,216.208 70.345 C 218.888 67.694,222.116 62.677,221.523 62.083 C 221.426 61.987,220.993 62.637,220.560 63.529 M188.730 74.462 C 188.730 74.949,192.537 76.350,194.560 76.607 C 195.621 76.742,195.201 76.546,193.343 76.038 C 191.783 75.612,190.107 75.001,189.618 74.681 C 189.130 74.361,188.730 74.262,188.730 74.462 M196.512 77.060 C 196.913 77.461,201.822 77.534,202.483 77.148 C 202.842 76.939,201.781 76.810,199.650 76.802 C 197.776 76.796,196.364 76.912,196.512 77.060 M371.729 113.381 C 371.729 113.623,372.717 114.507,373.926 115.347 C 380.021 119.581,387.324 128.719,390.472 136.051 C 391.319 138.023,392.268 140.191,392.581 140.868 C 396.726 149.848,396.700 166.788,392.523 178.948 C 390.645 184.418,390.718 184.145,391.128 184.145 C 391.834 184.145,394.668 175.087,395.251 170.965 C 395.400 169.914,395.713 168.932,395.946 168.782 C 396.587 168.370,396.536 151.981,395.893 151.767 C 395.630 151.679,395.415 151.271,395.415 150.859 C 395.415 148.541,392.547 138.110,391.594 136.962 C 391.370 136.691,390.441 134.940,389.531 133.069 C 388.621 131.199,387.630 129.419,387.330 129.113 C 387.029 128.808,386.207 127.698,385.503 126.648 C 383.502 123.663,378.102 117.981,375.343 115.957 C 374.511 115.347,373.357 114.419,372.779 113.895 C 372.202 113.371,371.729 113.140,371.729 113.381 M338.491 136.772 C 338.491 136.982,339.007 137.154,339.637 137.154 C 340.267 137.154,340.783 136.982,340.783 136.772 C 340.783 136.562,340.267 136.390,339.637 136.390 C 339.007 136.390,338.491 136.562,338.491 136.772 M344.222 136.772 C 344.222 136.982,344.833 137.154,345.581 137.154 C 346.390 137.154,346.845 136.999,346.705 136.772 C 346.575 136.562,345.963 136.390,345.345 136.390 C 344.727 136.390,344.222 136.562,344.222 136.772 M336.581 137.154 C 336.581 137.364,336.839 137.536,337.154 137.536 C 337.469 137.536,337.727 137.364,337.727 137.154 C 337.727 136.944,337.469 136.772,337.154 136.772 C 336.839 136.772,336.581 136.944,336.581 137.154 M347.278 137.051 C 347.278 137.238,348.146 137.614,349.208 137.886 C 354.283 139.187,360.596 144.219,362.668 148.615 C 363.930 151.294,364.927 153.563,365.271 154.537 C 365.457 155.065,365.552 155.117,365.578 154.706 C 365.639 153.754,364.054 149.379,363.648 149.379 C 363.445 149.379,363.385 149.207,363.515 148.997 C 363.645 148.787,363.611 148.615,363.440 148.615 C 363.268 148.615,362.885 148.066,362.589 147.396 C 361.174 144.200,353.144 137.918,350.472 137.918 C 350.221 137.918,349.959 137.767,349.889 137.582 C 349.714 137.123,347.278 136.627,347.278 137.051 M335.129 137.612 C 334.877 137.864,334.670 137.964,334.670 137.834 C 334.670 137.254,329.283 140.299,327.136 142.092 C 323.224 145.361,319.290 152.263,319.421 155.628 C 319.438 156.078,319.700 155.423,320.003 154.172 C 320.305 152.920,320.683 151.803,320.843 151.688 C 321.002 151.574,321.679 150.363,322.347 148.997 C 324.472 144.655,329.920 139.758,334.088 138.444 C 335.249 138.078,336.199 137.638,336.199 137.466 C 336.199 137.010,335.657 137.084,335.129 137.612 M38.416 141.670 L 37.290 143.075 38.702 141.759 C 40.162 140.398,40.315 140.191,39.828 140.238 C 39.670 140.253,39.035 140.898,38.416 141.670 M0.471 152.053 C 0.471 152.789,0.549 153.090,0.645 152.722 C 0.741 152.354,0.741 151.753,0.645 151.385 C 0.549 151.017,0.471 151.318,0.471 152.053 M0.141 159.312 C 0.141 161.519,0.204 162.421,0.282 161.318 C 0.359 160.215,0.359 158.410,0.282 157.307 C 0.204 156.203,0.141 157.106,0.141 159.312 M319.144 160.076 C 319.144 162.073,319.209 162.889,319.288 161.891 C 319.366 160.893,319.366 159.260,319.288 158.262 C 319.209 157.264,319.144 158.080,319.144 160.076 M366.102 160.076 C 366.102 161.022,366.177 161.409,366.268 160.936 C 366.359 160.463,366.359 159.690,366.268 159.217 C 366.177 158.744,366.102 159.131,366.102 160.076 M0.478 165.616 C 0.483 166.457,0.561 166.755,0.652 166.280 C 0.744 165.805,0.740 165.117,0.645 164.752 C 0.549 164.387,0.474 164.776,0.478 165.616 M364.973 166.091 C 364.725 166.670,364.083 168.242,363.547 169.584 C 362.086 173.237,359.035 176.994,356.160 178.681 C 355.267 179.205,354.537 179.768,354.537 179.932 C 354.537 180.264,351.493 181.644,349.859 182.054 C 349.283 182.198,348.904 182.467,349.017 182.650 C 349.134 182.839,349.506 182.835,349.874 182.641 C 350.232 182.452,351.815 181.700,353.391 180.970 C 358.422 178.637,362.908 173.669,364.740 168.402 C 365.659 165.759,365.827 164.092,364.973 166.091 M319.805 166.292 C 319.679 168.760,323.405 174.655,327.221 178.024 C 329.355 179.909,334.429 182.664,336.008 182.796 C 336.218 182.814,336.620 182.972,336.901 183.148 C 337.183 183.325,337.569 183.310,337.763 183.115 C 337.978 182.900,337.332 182.566,336.106 182.256 C 330.884 180.939,324.676 176.033,322.592 171.576 C 322.042 170.399,321.369 169.179,321.096 168.863 C 320.823 168.548,320.429 167.689,320.220 166.953 C 320.011 166.218,319.824 165.920,319.805 166.292 M1.288 171.202 C 1.515 172.985,3.102 178.878,3.301 178.679 C 3.385 178.595,2.926 176.568,2.282 174.173 C 1.638 171.778,1.190 170.441,1.288 171.202 M345.272 182.895 C 344.484 182.978,343.840 183.207,343.840 183.404 C 343.840 183.895,346.026 183.861,346.332 183.366 C 346.468 183.147,346.893 183.068,347.278 183.190 C 347.663 183.312,348.088 183.233,348.223 183.015 C 348.471 182.615,348.099 182.600,345.272 182.895 M338.682 183.381 C 338.812 183.591,339.414 183.763,340.019 183.763 C 340.625 183.763,341.226 183.591,341.356 183.381 C 341.499 183.150,340.971 182.999,340.019 182.999 C 339.068 182.999,338.539 183.150,338.682 183.381 M282.915 302.980 C 283.054 303.205,284.368 303.368,285.899 303.352 C 287.403 303.336,289.107 303.433,289.685 303.568 C 290.284 303.708,290.735 303.653,290.735 303.439 C 290.735 302.984,287.999 302.579,284.929 302.579 C 283.447 302.579,282.753 302.717,282.915 302.980 M280.420 303.343 C 280.420 303.553,280.850 303.725,281.375 303.725 C 281.901 303.725,282.330 303.553,282.330 303.343 C 282.330 303.133,281.901 302.961,281.375 302.961 C 280.850 302.961,280.420 303.133,280.420 303.343 M277.841 303.819 C 276.778 304.160,276.103 304.871,276.842 304.871 C 277.568 304.871,280.038 303.939,280.038 303.664 C 280.038 303.264,279.439 303.307,277.841 303.819 M291.117 303.611 C 291.117 303.792,291.934 304.175,292.932 304.463 C 295.194 305.114,297.886 306.446,299.140 307.534 C 303.394 311.226,306.058 314.529,306.606 316.794 C 306.744 317.363,307.097 318.029,307.392 318.274 C 307.686 318.518,307.927 318.984,307.927 319.308 C 307.927 319.633,308.031 319.795,308.157 319.669 C 308.486 319.339,307.558 316.714,307.111 316.714 C 306.905 316.714,306.843 316.541,306.974 316.329 C 307.337 315.742,303.800 310.936,301.433 308.800 C 298.284 305.958,291.117 302.354,291.117 303.611 M273.734 305.884 C 269.197 308.509,263.228 315.789,263.228 318.699 C 263.228 319.376,264.244 318.049,264.497 317.041 C 264.636 316.490,265.352 315.142,266.090 314.046 C 266.827 312.950,267.431 311.907,267.431 311.728 C 267.431 311.550,267.672 311.266,267.967 311.098 C 268.262 310.930,269.372 309.990,270.435 309.009 C 271.497 308.028,273.233 306.738,274.292 306.143 C 275.351 305.549,276.217 304.933,276.217 304.776 C 276.218 304.418,276.435 304.321,273.734 305.884 M262.709 320.233 C 262.580 320.714,262.490 321.452,262.508 321.872 C 262.526 322.292,262.698 321.965,262.891 321.146 C 263.263 319.558,263.104 318.759,262.709 320.233 M308.569 321.872 C 308.690 322.923,308.853 323.854,308.931 323.941 C 309.200 324.242,308.997 321.871,308.673 320.917 C 308.454 320.273,308.420 320.584,308.569 321.872 M262.222 326.457 C 262.223 328.558,262.287 329.369,262.364 328.258 C 262.442 327.148,262.441 325.429,262.362 324.438 C 262.284 323.447,262.221 324.355,262.222 326.457 M130.774 325.501 C 130.774 326.657,130.845 327.130,130.933 326.552 C 131.020 325.974,131.020 325.029,130.933 324.451 C 130.845 323.873,130.774 324.346,130.774 325.501 M309.170 326.457 C 309.174 327.297,309.252 327.596,309.344 327.121 C 309.435 326.645,309.432 325.958,309.336 325.592 C 309.240 325.227,309.166 325.616,309.170 326.457 M308.780 329.704 C 308.780 330.439,308.859 330.740,308.955 330.372 C 309.051 330.005,309.051 329.403,308.955 329.035 C 308.859 328.668,308.780 328.968,308.780 329.704 M262.540 331.041 C 262.540 331.461,262.678 332.235,262.846 332.760 C 263.088 333.517,263.152 333.556,263.152 332.951 C 263.152 332.531,263.014 331.757,262.846 331.232 C 262.604 330.476,262.540 330.436,262.540 331.041 M308.166 332.426 C 308.032 333.097,307.993 333.717,308.079 333.804 C 308.166 333.890,308.355 333.421,308.500 332.760 C 308.646 332.100,308.685 331.480,308.587 331.383 C 308.490 331.285,308.300 331.755,308.166 332.426 M263.228 334.122 C 263.228 334.750,264.904 338.109,265.217 338.109 C 265.419 338.109,265.526 337.980,265.455 337.822 C 265.384 337.665,265.077 336.891,264.773 336.103 C 264.469 335.315,264.073 334.670,263.893 334.670 C 263.713 334.670,263.671 334.499,263.801 334.288 C 263.931 334.078,263.855 333.906,263.633 333.906 C 263.410 333.906,263.228 334.003,263.228 334.122 M306.222 336.841 C 304.890 339.898,301.101 344.113,298.327 345.622 C 297.304 346.179,296.466 346.768,296.466 346.931 C 296.466 347.093,296.109 347.340,295.673 347.478 C 295.237 347.617,294.962 347.812,295.063 347.912 C 296.200 349.050,306.608 339.767,306.113 338.057 C 306.060 337.875,306.170 337.727,306.358 337.727 C 306.642 337.727,307.927 335.061,307.927 334.472 C 307.927 333.637,307.142 334.727,306.222 336.841 M266.590 340.497 C 269.658 344.658,276.744 349.264,279.930 349.168 C 280.305 349.156,279.610 348.827,278.387 348.436 C 277.163 348.045,275.530 347.305,274.757 346.791 C 273.985 346.277,272.751 345.498,272.015 345.060 C 270.633 344.237,268.237 341.843,266.661 339.712 C 266.165 339.040,265.613 338.491,265.435 338.491 C 265.257 338.491,265.777 339.394,266.590 340.497 M337.976 340.911 C 334.861 351.532,328.286 361.971,320.803 368.176 C 319.738 369.059,318.701 370.090,318.498 370.468 C 317.695 371.966,326.930 363.105,328.433 360.936 C 329.024 360.083,329.973 358.887,330.541 358.279 C 331.110 357.670,331.686 356.821,331.822 356.392 C 331.959 355.964,332.879 354.280,333.868 352.652 C 334.857 351.024,336.259 347.902,336.983 345.715 C 337.707 343.528,338.407 341.652,338.538 341.547 C 338.954 341.215,339.313 338.954,338.984 338.750 C 338.810 338.643,338.356 339.615,337.976 340.911 M91.381 342.279 C 91.469 342.576,91.962 343.081,92.476 343.401 C 93.200 343.853,93.281 343.860,92.837 343.434 C 92.521 343.132,92.029 342.627,91.742 342.311 C 91.322 341.850,91.252 341.844,91.381 342.279 M56.883 348.711 C 57.074 349.078,57.687 350.516,58.244 351.906 C 58.802 353.296,59.507 354.757,59.811 355.153 C 61.416 357.248,62.293 358.873,61.938 359.092 C 61.714 359.231,61.685 359.552,61.870 359.852 C 62.123 360.260,62.282 360.202,62.615 359.578 C 63.068 358.733,62.535 357.537,60.327 354.446 C 59.766 353.661,58.831 351.899,58.249 350.530 C 57.668 349.162,57.044 348.042,56.864 348.042 C 56.684 348.042,56.692 348.343,56.883 348.711 M292.264 348.641 L 290.926 349.181 292.264 348.950 C 293.779 348.688,295.179 348.052,294.174 348.083 C 293.859 348.092,292.999 348.343,292.264 348.641 M281.071 349.610 C 281.373 349.912,281.693 349.915,282.198 349.621 C 282.817 349.262,282.765 349.210,281.777 349.200 C 280.955 349.191,280.764 349.302,281.071 349.610 M289.016 349.570 C 289.146 349.780,289.490 349.952,289.780 349.952 C 290.071 349.952,290.415 349.780,290.544 349.570 C 290.679 349.353,290.350 349.188,289.780 349.188 C 289.211 349.188,288.882 349.353,289.016 349.570 M283.668 349.952 C 284.088 350.133,284.947 350.281,285.578 350.281 C 286.208 350.281,287.068 350.133,287.488 349.952 C 288.011 349.728,287.407 349.624,285.578 349.624 C 283.749 349.624,283.145 349.728,283.668 349.952 M63.037 359.261 C 63.037 360.135,64.756 362.255,68.782 366.349 C 70.739 368.339,74.029 371.043,75.674 372.015 C 76.604 372.563,77.622 373.283,77.937 373.614 C 78.428 374.129,80.726 375.415,81.948 375.859 C 82.283 375.980,81.306 375.266,79.465 374.044 C 77.795 372.935,72.753 369.308,72.588 369.097 C 72.483 368.963,71.599 368.162,70.622 367.317 C 69.646 366.472,67.693 364.411,66.282 362.738 C 63.123 358.991,63.037 358.899,63.037 359.261 M316.714 371.538 C 316.449 371.857,316.408 372.111,316.621 372.111 C 316.831 372.111,317.217 371.853,317.479 371.538 C 317.744 371.218,317.785 370.965,317.572 370.965 C 317.362 370.965,316.976 371.223,316.714 371.538 M314.133 373.233 C 312.363 374.515,308.960 376.267,306.304 377.264 C 304.536 377.928,303.908 378.606,305.062 378.606 C 305.377 378.606,305.635 378.405,305.635 378.160 C 305.635 377.915,305.739 377.818,305.867 377.946 C 305.994 378.073,306.295 378.011,306.535 377.807 C 306.776 377.603,308.531 376.689,310.436 375.776 C 312.341 374.862,314.386 373.664,314.981 373.113 C 316.406 371.792,316.054 371.842,314.133 373.233 M81.942 377.088 C 81.687 377.500,82.638 377.994,83.277 377.781 C 83.496 377.708,83.338 377.437,82.925 377.179 C 82.449 376.882,82.090 376.849,81.942 377.088 M85.196 377.399 C 85.196 377.882,88.108 379.384,88.448 379.076 C 88.618 378.922,88.631 379.015,88.477 379.282 C 88.188 379.784,90.794 381.157,91.222 380.729 C 91.340 380.612,91.235 380.516,90.990 380.516 C 90.745 380.516,90.544 380.348,90.544 380.142 C 90.544 379.902,90.853 379.897,91.404 380.128 C 92.723 380.680,99.566 382.050,100.757 382.000 C 101.950 381.950,101.909 381.939,97.230 381.050 C 93.670 380.375,89.911 379.272,88.267 378.422 C 86.465 377.491,85.196 377.067,85.196 377.399 M302.362 378.941 C 301.580 379.649,292.778 381.428,288.252 381.792 C 287.046 381.890,287.166 381.929,288.825 381.979 C 292.957 382.104,303.782 379.682,302.924 378.824 C 302.811 378.711,302.558 378.764,302.362 378.941 " stroke="none" fill="#7bd3fb" fill-rule="evenodd"/><path id="path3" d="M189.494 0.927 C 187.708 1.207,184.882 1.791,183.215 2.225 C 181.548 2.659,180.044 2.928,179.872 2.822 C 179.701 2.716,179.561 2.918,179.561 3.272 C 179.561 3.799,179.458 3.829,178.988 3.438 C 178.516 3.047,178.415 3.080,178.415 3.624 C 178.415 4.054,178.215 4.208,177.841 4.064 C 177.526 3.943,177.268 3.984,177.268 4.154 C 177.268 4.411,172.145 6.633,171.538 6.639 C 171.433 6.640,170.929 7.029,170.418 7.503 C 169.907 7.976,169.348 8.277,169.176 8.171 C 169.004 8.065,168.863 8.147,168.863 8.355 C 168.863 8.562,167.789 9.382,166.476 10.177 C 163.378 12.053,155.459 19.947,152.732 23.878 C 139.202 43.386,138.918 68.571,152.004 88.236 C 156.534 95.042,160.042 98.125,180.064 112.897 L 198.368 126.401 205.297 121.395 C 209.107 118.641,216.523 113.300,221.777 109.525 C 241.684 95.219,247.135 88.885,251.921 74.498 C 261.078 46.972,246.823 14.843,221.060 4.938 C 219.353 4.282,217.257 3.428,216.402 3.040 C 211.600 0.865,197.138 -0.271,189.494 0.927 M202.378 30.046 C 203.476 30.178,204.290 30.422,204.187 30.589 C 204.083 30.756,204.200 31.017,204.446 31.169 C 204.726 31.342,204.791 31.280,204.621 31.005 C 203.884 29.813,208.190 31.213,211.623 33.281 C 216.675 36.325,220.028 40.362,221.583 45.272 C 221.849 46.113,222.215 46.988,222.396 47.218 C 222.577 47.447,222.623 47.736,222.499 47.861 C 222.375 47.985,222.419 48.313,222.598 48.590 C 222.993 49.202,223.151 50.649,223.152 53.677 C 223.154 57.916,223.111 58.409,222.723 58.649 C 222.511 58.780,222.441 59.055,222.567 59.260 C 222.694 59.465,222.633 59.840,222.433 60.093 C 222.233 60.347,221.782 61.432,221.433 62.504 C 220.392 65.696,216.294 71.377,215.422 70.838 C 215.229 70.719,215.119 70.787,215.177 70.989 C 215.769 73.065,205.295 77.294,199.618 77.271 C 195.694 77.255,188.730 75.441,188.730 74.435 C 188.730 74.235,188.576 74.167,188.387 74.283 C 186.354 75.540,175.901 62.386,176.643 59.503 C 176.737 59.136,176.637 58.835,176.421 58.835 C 176.187 58.835,176.120 58.369,176.256 57.689 C 176.385 57.042,176.323 56.543,176.113 56.543 C 175.904 56.543,175.740 55.284,175.740 53.677 C 175.740 52.071,175.904 50.812,176.113 50.812 C 176.323 50.812,176.385 50.312,176.256 49.666 C 176.101 48.888,176.178 48.520,176.497 48.520 C 176.760 48.520,176.870 48.265,176.747 47.943 C 176.625 47.626,176.721 46.896,176.961 46.320 C 177.200 45.743,177.414 45.186,177.437 45.081 C 178.060 42.246,182.547 36.518,185.814 34.387 C 187.102 33.547,188.329 32.720,188.539 32.550 C 188.749 32.379,189.093 32.180,189.303 32.106 C 189.513 32.033,190.287 31.711,191.022 31.392 C 191.757 31.072,192.990 30.802,193.761 30.791 C 194.532 30.781,195.087 30.650,194.994 30.500 C 194.678 29.988,199.453 29.694,202.378 30.046 M334.288 103.788 C 314.732 105.718,297.673 117.342,289.007 134.642 C 287.352 137.948,272.779 179.533,272.779 180.953 C 272.779 181.030,274.799 182.581,277.268 184.399 C 279.737 186.218,283.305 188.848,285.196 190.246 C 287.087 191.643,291.540 194.925,295.091 197.539 C 298.642 200.153,302.628 203.105,303.949 204.099 C 339.044 230.498,387.227 212.636,394.872 170.392 C 395.749 165.545,395.836 148.714,394.981 149.226 C 394.847 149.306,394.617 148.568,394.469 147.587 C 394.322 146.606,393.865 144.713,393.454 143.381 C 393.042 142.049,392.812 140.786,392.943 140.575 C 393.073 140.364,392.997 140.238,392.773 140.296 C 392.276 140.425,388.484 131.820,388.808 131.297 C 388.935 131.091,388.850 131.040,388.619 131.183 C 388.107 131.499,384.958 126.996,385.301 126.441 C 385.432 126.229,385.388 126.103,385.204 126.161 C 384.721 126.312,382.390 123.563,382.721 123.232 C 382.874 123.080,382.741 123.012,382.426 123.082 C 382.078 123.159,381.873 122.953,381.903 122.556 C 381.931 122.196,381.845 121.929,381.712 121.962 C 381.281 122.069,378.411 119.071,378.542 118.651 C 378.612 118.426,378.545 118.366,378.394 118.518 C 378.243 118.669,377.264 118.024,376.220 117.085 C 375.175 116.146,374.157 115.377,373.957 115.377 C 373.757 115.377,373.717 115.179,373.866 114.936 C 374.035 114.664,373.971 114.599,373.701 114.766 C 373.460 114.915,372.857 114.640,372.360 114.156 C 370.486 112.330,362.000 108.037,357.112 106.441 C 350.018 104.126,341.225 103.104,334.288 103.788 M346.705 136.746 C 346.705 136.784,347.391 136.887,348.230 136.975 C 349.068 137.062,349.813 137.310,349.885 137.526 C 349.957 137.741,350.221 137.918,350.472 137.918 C 353.144 137.918,361.174 144.200,362.589 147.396 C 362.885 148.066,363.268 148.615,363.440 148.615 C 363.611 148.615,363.645 148.787,363.515 148.997 C 363.385 149.207,363.447 149.379,363.652 149.379 C 364.214 149.379,365.552 153.764,366.013 157.116 C 367.334 166.713,362.120 176.775,353.695 180.887 C 350.995 182.204,349.593 182.735,349.052 182.645 C 348.873 182.615,348.493 182.783,348.210 183.019 C 347.926 183.254,347.514 183.336,347.295 183.200 C 347.075 183.065,346.681 183.093,346.418 183.262 C 345.762 183.685,338.893 183.723,338.635 183.305 C 338.520 183.120,338.112 183.068,337.727 183.190 C 337.342 183.312,336.915 183.230,336.777 183.008 C 336.640 182.786,336.375 182.699,336.188 182.815 C 336.001 182.930,335.540 182.852,335.164 182.640 C 334.787 182.429,333.362 181.759,331.996 181.152 C 317.194 174.574,314.470 152.676,327.136 142.092 C 329.225 140.347,334.670 137.248,334.670 137.804 C 334.670 137.918,334.921 137.804,335.227 137.550 C 335.533 137.296,335.963 137.199,336.182 137.334 C 336.401 137.470,336.581 137.380,336.581 137.135 C 336.581 136.850,336.926 136.775,337.536 136.929 C 338.061 137.060,338.491 137.026,338.491 136.851 C 338.491 136.677,340.339 136.566,342.598 136.605 C 344.857 136.644,346.705 136.708,346.705 136.746 M242.267 271.324 C 241.849 272.650,238.735 281.955,235.345 292.002 C 231.955 302.048,228.853 311.774,228.452 313.613 C 219.095 356.484,260.528 393.364,302.105 379.173 C 302.370 379.082,302.695 379.018,302.827 379.031 C 302.959 379.043,303.215 378.823,303.396 378.543 C 303.665 378.125,303.793 378.136,304.101 378.606 C 304.435 379.114,304.478 379.114,304.483 378.602 C 304.489 378.030,310.472 375.132,311.825 375.045 C 312.183 375.022,312.404 374.931,312.316 374.844 C 312.012 374.540,314.034 373.208,314.428 373.452 C 314.645 373.586,314.776 373.528,314.718 373.322 C 314.627 372.997,317.197 370.965,317.699 370.965 C 317.802 370.965,318.492 370.359,319.232 369.618 C 319.973 368.878,320.745 368.375,320.948 368.501 C 321.152 368.626,321.276 368.587,321.224 368.414 C 321.172 368.241,322.301 366.896,323.732 365.425 C 330.210 358.767,334.356 351.787,337.530 342.199 C 338.211 340.141,338.878 338.465,339.012 338.474 C 339.714 338.523,339.780 338.449,339.302 338.146 C 338.976 337.940,338.896 337.616,339.092 337.299 C 339.267 337.016,339.435 336.524,339.466 336.205 C 339.498 335.886,339.745 333.668,340.017 331.275 C 342.924 305.700,326.818 280.341,302.512 272.220 C 293.329 269.151,294.159 269.225,267.167 269.060 L 243.025 268.913 242.267 271.324 M288.301 302.881 C 288.199 303.047,288.704 303.114,289.425 303.030 C 290.146 302.946,290.736 303.025,290.737 303.206 C 290.738 303.386,291.331 303.564,292.054 303.601 C 296.239 303.814,308.333 314.131,306.974 316.329 C 306.843 316.541,306.912 316.714,307.126 316.714 C 307.669 316.714,308.651 320.167,309.095 323.637 C 309.676 328.187,308.235 335.837,306.462 337.610 C 306.112 337.959,305.912 338.283,306.017 338.329 C 306.461 338.522,303.051 342.652,301.004 344.400 C 298.500 346.538,296.448 347.675,293.398 348.616 C 292.249 348.971,291.051 349.361,290.735 349.483 C 288.938 350.181,281.653 350.166,280.950 349.463 C 280.799 349.312,280.354 349.188,279.962 349.188 C 275.964 349.188,264.653 340.798,265.425 338.405 C 265.478 338.242,265.375 338.109,265.197 338.109 C 264.671 338.109,263.498 335.162,263.817 334.645 C 263.999 334.350,263.954 334.267,263.697 334.426 C 261.959 335.500,261.673 323.215,263.324 318.408 C 265.268 312.747,273.557 304.060,276.313 304.795 C 276.471 304.837,276.600 304.726,276.600 304.549 C 276.600 304.118,279.573 303.246,280.046 303.539 C 280.252 303.666,280.420 303.565,280.420 303.315 C 280.420 303.009,280.858 302.932,281.766 303.079 C 282.564 303.209,283.021 303.151,282.890 302.938 C 282.758 302.726,283.857 302.579,285.578 302.579 C 287.179 302.579,288.404 302.715,288.301 302.881 M165.529 331.614 C 165.529 332.560,165.604 332.947,165.695 332.474 C 165.786 332.001,165.786 331.227,165.695 330.755 C 165.604 330.282,165.529 330.669,165.529 331.614 M162.836 343.351 C 162.380 344.752,162.071 345.962,162.149 346.039 C 162.227 346.117,162.669 345.041,163.133 343.649 C 163.596 342.256,163.905 341.046,163.820 340.961 C 163.734 340.875,163.291 341.951,162.836 343.351 M160.718 349.015 C 159.820 350.897,159.947 351.217,160.885 349.439 C 161.311 348.631,161.592 347.902,161.510 347.820 C 161.427 347.737,161.071 348.275,160.718 349.015 M158.332 353.677 C 157.547 355.096,156.572 356.772,156.166 357.402 L 155.429 358.548 156.320 357.504 C 157.251 356.413,160.255 351.098,159.941 351.098 C 159.841 351.098,159.117 352.259,158.332 353.677 M59.981 356.442 C 59.501 356.747,59.606 357.006,60.625 358.028 C 61.906 359.312,62.251 358.643,61.038 357.227 C 60.701 356.833,60.526 356.411,60.649 356.288 C 60.989 355.948,60.624 356.032,59.981 356.442 M149.940 364.872 C 148.686 366.144,147.918 367.068,148.233 366.925 C 148.797 366.670,152.707 362.560,152.386 362.560 C 152.295 362.560,151.194 363.600,149.940 364.872 M143.649 370.648 C 142.647 371.557,142.408 371.887,143.075 371.437 C 144.130 370.727,145.882 369.033,145.522 369.071 C 145.437 369.080,144.594 369.789,143.649 370.648 M140.012 373.119 C 137.967 374.475,137.650 374.786,138.319 374.779 C 138.825 374.774,142.188 372.158,141.731 372.125 C 141.623 372.117,140.849 372.565,140.012 373.119 M136.199 375.549 C 135.568 375.967,135.224 376.306,135.435 376.302 C 135.818 376.296,137.895 374.807,137.536 374.796 C 137.431 374.793,136.829 375.132,136.199 375.549 M83.019 377.209 C 83.537 377.626,83.584 377.814,83.210 377.964 C 82.841 378.112,82.860 378.179,83.286 378.223 C 83.601 378.255,84.160 378.340,84.529 378.410 C 84.898 378.481,85.101 378.379,84.980 378.184 C 84.860 377.989,84.601 377.928,84.405 378.049 C 84.210 378.170,84.050 378.093,84.050 377.877 C 84.050 377.662,83.663 377.299,83.190 377.070 C 82.400 376.687,82.386 376.698,83.019 377.209 M90.447 380.219 C 90.330 380.525,90.607 380.728,91.191 380.763 C 91.703 380.795,92.068 380.789,92.002 380.751 C 91.936 380.713,91.601 380.468,91.258 380.207 C 90.759 379.827,90.596 379.830,90.447 380.219 M118.816 381.499 L 116.332 382.006 118.625 381.797 C 119.885 381.682,121.175 381.437,121.490 381.254 C 122.204 380.839,121.911 380.866,118.816 381.499 " stroke="none" fill="#3cacfb" fill-rule="evenodd"/><path id="path4" d="M48.495 102.773 C 45.073 103.352,42.349 103.986,42.524 104.161 C 42.622 104.259,44.054 104.066,45.706 103.733 C 47.359 103.400,50.086 102.984,51.767 102.808 C 54.710 102.501,54.739 102.489,52.531 102.484 C 51.270 102.480,49.454 102.611,48.495 102.773 M62.273 102.811 C 63.849 102.990,66.428 103.398,68.004 103.718 C 72.739 104.681,72.845 104.694,71.060 104.094 C 68.637 103.279,63.264 102.379,61.172 102.437 C 59.747 102.477,59.959 102.549,62.273 102.811 M32.215 107.899 C 30.287 108.821,28.632 109.498,28.537 109.403 C 28.443 109.309,28.270 109.481,28.153 109.785 C 27.988 110.215,35.378 107.076,36.262 106.341 C 36.881 105.826,35.193 106.476,32.215 107.899 M77.587 106.353 C 77.959 106.690,83.668 109.198,83.668 109.024 C 83.668 108.813,78.154 106.208,77.707 106.208 C 77.553 106.208,77.499 106.273,77.587 106.353 M84.814 109.745 C 85.268 110.225,91.282 114.116,91.091 113.806 C 90.842 113.403,86.956 110.744,85.578 110.035 C 85.053 109.764,84.709 109.634,84.814 109.745 M92.264 114.854 C 92.684 115.268,94.661 117.141,96.657 119.017 L 100.287 122.428 97.421 119.448 C 95.845 117.808,93.868 115.935,93.028 115.285 C 92.187 114.635,91.843 114.441,92.264 114.854 M15.472 119.907 C 13.076 122.424,9.933 126.481,9.933 127.056 C 9.933 127.208,11.312 125.590,12.998 123.459 C 14.684 121.329,16.475 119.316,16.978 118.987 C 17.794 118.452,18.590 117.287,18.139 117.287 C 18.043 117.287,16.843 118.466,15.472 119.907 M101.856 124.956 C 102.888 126.336,104.039 127.883,104.415 128.394 C 104.790 128.904,104.977 129.064,104.830 128.749 C 104.346 127.714,101.325 123.563,100.645 122.999 C 100.279 122.695,100.824 123.576,101.856 124.956 M8.895 128.462 C 8.461 128.935,7.571 130.391,6.918 131.699 C 4.750 136.039,5.644 135.051,8.639 129.799 C 10.023 127.373,10.056 127.198,8.895 128.462 M105.635 130.659 C 105.961 131.289,106.314 131.805,106.419 131.805 C 106.524 131.805,106.343 131.289,106.017 130.659 C 105.691 130.029,105.339 129.513,105.233 129.513 C 105.128 129.513,105.309 130.029,105.635 130.659 M107.099 133.429 C 107.836 135.189,109.228 137.783,109.248 137.432 C 109.274 136.965,107.045 132.187,106.800 132.187 C 106.679 132.187,106.814 132.746,107.099 133.429 M45.095 136.230 C 43.514 136.915,39.592 139.815,39.869 140.092 C 39.977 140.200,40.549 139.835,41.140 139.282 C 41.732 138.729,43.108 137.851,44.199 137.332 C 46.859 136.067,47.614 135.137,45.095 136.230 M64.575 135.911 C 64.580 136.069,65.198 136.504,65.947 136.877 C 66.846 137.325,67.257 137.396,67.153 137.086 C 66.978 136.560,64.560 135.459,64.575 135.911 M4.302 137.363 C 3.730 137.984,1.830 144.388,2.049 144.961 C 2.134 145.185,2.288 145.110,2.392 144.795 C 4.699 137.793,5.006 136.599,4.302 137.363 M67.622 137.434 C 67.622 137.610,68.177 138.081,68.856 138.482 C 69.535 138.883,71.272 140.425,72.715 141.907 C 74.159 143.390,74.993 144.088,74.569 143.457 C 73.234 141.476,67.622 136.610,67.622 137.434 M37.291 142.578 C 36.335 143.670,35.634 144.644,35.733 144.743 C 35.831 144.841,35.957 144.850,36.013 144.763 C 36.068 144.675,36.852 143.701,37.755 142.598 C 39.872 140.011,39.548 139.997,37.291 142.578 M110.832 142.269 C 110.769 142.813,113.123 150.232,113.302 150.054 C 113.391 149.965,112.880 148.100,112.167 145.911 C 111.454 143.721,110.853 142.082,110.832 142.269 M77.937 151.862 C 77.937 152.178,78.109 152.436,78.319 152.436 C 78.529 152.436,78.701 152.178,78.701 151.862 C 78.701 151.547,78.529 151.289,78.319 151.289 C 78.109 151.289,77.937 151.547,77.937 151.862 M0.535 158.739 C 0.535 161.891,0.595 163.130,0.666 161.492 C 0.738 159.854,0.738 157.275,0.665 155.761 C 0.593 154.247,0.534 155.587,0.535 158.739 M78.407 154.155 C 78.450 154.680,78.620 155.110,78.784 155.110 C 78.949 155.110,79.083 154.680,79.083 154.155 C 79.083 153.629,78.913 153.200,78.705 153.200 C 78.498 153.200,78.363 153.629,78.407 154.155 M31.942 154.950 C 31.574 155.908,31.683 159.827,32.095 160.458 C 32.353 160.853,32.457 159.993,32.431 157.689 C 32.391 154.236,32.335 153.924,31.942 154.950 M115.034 155.669 C 114.971 156.264,117.431 164.040,117.560 163.653 C 117.625 163.458,117.092 161.500,116.375 159.300 C 115.659 157.101,115.056 155.466,115.034 155.669 M78.701 157.807 C 78.701 158.743,78.852 159.264,79.083 159.121 C 79.293 158.991,79.465 158.294,79.465 157.571 C 79.465 156.848,79.293 156.256,79.083 156.256 C 78.873 156.256,78.701 156.954,78.701 157.807 M78.557 160.774 C 78.388 161.262,78.351 161.764,78.475 161.888 C 78.871 162.284,79.150 161.700,79.004 160.778 L 78.864 159.885 78.557 160.774 M77.414 165.138 C 77.085 166.365,77.119 166.650,77.561 166.376 C 77.775 166.244,77.858 165.988,77.746 165.807 C 77.634 165.626,77.717 165.370,77.931 165.238 C 78.408 164.943,78.443 164.279,77.982 164.279 C 77.796 164.279,77.540 164.666,77.414 165.138 M1.182 168.863 C 1.108 169.883,3.575 179.179,3.920 179.179 C 4.104 179.179,4.163 178.878,4.051 178.510 C 3.939 178.142,3.428 176.294,2.916 174.403 C 1.412 168.853,1.226 168.260,1.182 168.863 M35.300 169.914 C 35.963 171.172,37.029 172.593,37.046 172.242 C 37.070 171.747,35.381 168.863,35.067 168.863 C 34.891 168.863,34.996 169.336,35.300 169.914 M119.289 169.723 C 119.384 169.986,119.946 171.792,120.537 173.737 C 121.128 175.682,121.688 177.198,121.780 177.106 C 121.999 176.886,119.625 169.245,119.337 169.245 C 119.215 169.245,119.194 169.460,119.289 169.723 M72.588 173.378 C 71.643 174.387,70.181 175.771,69.341 176.453 C 68.500 177.135,68.182 177.515,68.634 177.297 C 70.214 176.534,75.252 171.520,74.416 171.540 C 74.357 171.542,73.534 172.369,72.588 173.378 M38.097 173.569 C 38.896 174.604,41.541 176.886,41.942 176.886 C 42.151 176.886,40.734 175.516,38.595 173.651 L 37.267 172.493 38.097 173.569 M44.016 178.183 C 44.286 178.477,44.637 178.638,44.795 178.543 C 44.952 178.447,45.081 178.514,45.081 178.690 C 45.081 179.046,47.421 180.022,47.673 179.771 C 47.827 179.617,44.181 177.650,43.742 177.650 C 43.621 177.650,43.745 177.890,44.016 178.183 M65.903 178.425 C 65.482 178.613,64.467 179.034,63.647 179.360 C 62.827 179.686,62.257 180.054,62.381 180.178 C 62.625 180.422,66.858 178.594,66.858 178.245 C 66.858 177.994,66.877 177.990,65.903 178.425 M3.820 180.134 C 3.820 180.449,3.992 180.707,4.202 180.707 C 4.413 180.707,4.585 180.449,4.585 180.134 C 4.585 179.819,4.413 179.561,4.202 179.561 C 3.992 179.561,3.820 179.819,3.820 180.134 M150.563 269.165 C 150.508 269.742,152.840 277.087,153.021 276.906 C 153.104 276.823,152.594 274.957,151.887 272.761 C 151.180 270.565,150.584 268.947,150.563 269.165 M154.444 282.044 C 154.544 282.307,155.191 284.371,155.884 286.631 C 156.576 288.891,157.215 290.668,157.304 290.579 C 157.518 290.365,154.764 281.566,154.483 281.566 C 154.362 281.566,154.345 281.781,154.444 282.044 M159.312 297.534 C 159.312 298.000,161.543 304.344,161.576 303.971 C 161.619 303.483,159.675 297.230,159.480 297.230 C 159.388 297.230,159.312 297.367,159.312 297.534 M107.068 302.078 C 107.436 302.174,108.037 302.174,108.405 302.078 C 108.773 301.982,108.472 301.903,107.736 301.903 C 107.001 301.903,106.700 301.982,107.068 302.078 M115.759 303.680 C 115.759 303.866,116.060 304.104,116.428 304.210 C 116.796 304.316,117.440 304.526,117.861 304.677 C 118.285 304.830,118.116 304.596,117.479 304.150 C 116.238 303.282,115.759 303.151,115.759 303.680 M93.276 306.784 C 92.404 307.415,91.691 308.104,91.691 308.315 C 91.691 308.525,92.179 308.262,92.776 307.731 C 93.372 307.199,94.189 306.515,94.590 306.212 C 96.000 305.145,94.844 305.648,93.276 306.784 M123.591 308.731 C 124.852 310.065,126.012 311.218,126.170 311.293 C 126.328 311.368,126.460 311.630,126.463 311.875 C 126.467 312.120,126.936 312.751,127.505 313.276 L 128.540 314.231 127.815 313.085 C 126.670 311.273,123.409 307.637,122.305 306.940 C 121.752 306.591,122.330 307.397,123.591 308.731 M88.631 311.458 C 87.533 313.108,87.452 313.276,87.756 313.271 C 87.924 313.269,88.450 312.667,88.924 311.934 C 89.399 311.201,89.655 310.602,89.494 310.602 C 89.332 310.602,88.944 310.987,88.631 311.458 M163.559 310.602 C 163.542 310.707,163.870 312.340,164.289 314.231 C 164.798 316.525,164.985 317.026,164.852 315.735 C 164.684 314.098,163.655 310.015,163.559 310.602 M165.139 319.198 C 165.144 320.038,165.222 320.337,165.313 319.862 C 165.405 319.387,165.401 318.699,165.305 318.334 C 165.210 317.968,165.135 318.357,165.139 319.198 M84.336 321.519 C 84.179 321.678,84.050 322.158,84.050 322.585 C 84.050 323.147,84.165 323.247,84.468 322.944 C 84.697 322.714,84.826 322.235,84.754 321.878 C 84.682 321.522,84.494 321.360,84.336 321.519 M165.571 325.692 C 165.572 328.214,165.633 329.196,165.708 327.874 C 165.783 326.553,165.782 324.490,165.707 323.290 C 165.631 322.090,165.570 323.171,165.571 325.692 M130.850 325.538 C 130.850 327.409,130.979 328.940,131.137 328.940 C 131.294 328.940,131.423 327.489,131.423 325.715 C 131.423 323.941,131.294 322.410,131.137 322.313 C 130.979 322.216,130.850 323.667,130.850 325.538 M84.304 328.048 C 83.908 328.445,84.005 329.704,84.432 329.704 C 84.642 329.704,84.814 329.274,84.814 328.749 C 84.814 327.749,84.726 327.627,84.304 328.048 M164.879 333.552 C 164.733 334.842,164.692 335.975,164.788 336.071 C 164.884 336.167,165.085 335.193,165.234 333.906 C 165.383 332.620,165.424 331.486,165.325 331.387 C 165.226 331.288,165.025 332.262,164.879 333.552 M86.343 335.545 C 86.338 336.662,90.708 342.657,91.182 342.183 C 91.270 342.095,90.862 341.519,90.275 340.903 C 88.995 339.561,87.870 338.167,87.870 337.923 C 87.870 337.825,87.527 337.182,87.107 336.494 C 86.688 335.806,86.344 335.379,86.343 335.545 M163.956 338.550 C 163.706 339.631,163.571 340.585,163.656 340.670 C 163.741 340.755,164.021 339.946,164.279 338.873 C 164.536 337.800,164.671 336.846,164.578 336.753 C 164.485 336.660,164.205 337.468,163.956 338.550 M126.304 339.413 C 125.342 340.760,124.338 341.950,124.073 342.057 C 123.754 342.185,123.740 342.261,124.033 342.281 C 124.506 342.313,127.194 339.248,127.942 337.822 C 128.761 336.263,128.079 336.925,126.304 339.413 M93.410 344.424 C 94.040 344.941,94.718 345.365,94.917 345.366 C 95.115 345.367,94.695 344.938,93.983 344.413 C 92.321 343.187,91.910 343.195,93.410 344.424 M121.299 344.460 C 120.669 344.997,120.497 345.261,120.917 345.048 C 122.059 344.468,123.263 343.482,122.827 343.483 C 122.617 343.484,121.929 343.924,121.299 344.460 M55.972 346.036 C 56.123 346.404,56.334 347.006,56.439 347.373 C 56.545 347.741,56.802 348.042,57.010 348.042 C 57.220 348.042,57.266 347.745,57.113 347.373 C 56.962 347.006,56.751 346.404,56.646 346.036 C 56.540 345.669,56.283 345.368,56.075 345.368 C 55.865 345.368,55.819 345.664,55.972 346.036 M96.084 346.212 C 97.114 346.963,98.185 347.328,98.185 346.928 C 98.185 346.749,97.884 346.516,97.517 346.411 C 97.149 346.305,96.504 346.092,96.084 345.937 L 95.320 345.656 96.084 346.212 M106.495 349.082 C 107.178 349.167,108.295 349.167,108.978 349.082 C 109.661 348.998,109.102 348.928,107.736 348.928 C 106.371 348.928,105.812 348.998,106.495 349.082 M58.071 350.092 C 58.071 350.541,59.879 353.915,60.556 354.728 C 60.906 355.148,60.550 354.288,59.766 352.818 C 58.234 349.943,58.071 349.681,58.071 350.092 M155.492 357.784 C 154.841 358.730,154.395 359.503,154.500 359.503 C 154.605 359.503,155.223 358.730,155.874 357.784 C 156.524 356.839,156.971 356.065,156.866 356.065 C 156.761 356.065,156.142 356.839,155.492 357.784 M62.449 357.784 C 64.963 361.915,70.516 367.672,75.549 371.367 C 78.300 373.387,77.346 372.371,74.002 369.721 C 70.488 366.937,66.791 363.147,64.204 359.679 C 62.159 356.939,61.502 356.230,62.449 357.784 M151.456 363.037 L 150.334 364.279 151.576 363.157 C 152.733 362.111,152.993 361.796,152.698 361.796 C 152.632 361.796,152.074 362.354,151.456 363.037 M146.684 367.786 L 145.368 369.193 146.583 368.264 C 147.596 367.490,148.493 366.380,148.105 366.380 C 148.048 366.380,147.408 367.013,146.684 367.786 M142.884 370.826 C 140.805 372.459,140.547 372.722,141.547 372.189 C 142.379 371.746,145.105 369.465,144.795 369.472 C 144.690 369.474,143.830 370.083,142.884 370.826 M79.468 373.882 C 79.470 374.063,80.148 374.599,80.976 375.072 C 82.618 376.009,83.531 376.243,82.320 375.417 C 80.247 374.001,79.465 373.581,79.468 373.882 M136.199 375.167 C 135.148 375.790,134.430 376.303,134.602 376.307 C 134.976 376.315,138.300 374.399,138.300 374.176 C 138.300 373.931,138.215 373.971,136.199 375.167 M88.340 378.438 C 89.613 379.129,93.957 380.515,94.747 380.482 C 95.062 380.469,93.601 379.873,91.500 379.156 C 87.261 377.712,86.814 377.610,88.340 378.438 M126.329 379.250 C 125.313 379.560,124.571 379.904,124.680 380.013 C 124.890 380.223,128.749 379.040,128.749 378.766 C 128.749 378.543,128.439 378.605,126.329 379.250 " stroke="none" fill="#749ab0" fill-rule="evenodd"/></g></svg>